<svg width="1440" height="1322" viewBox="0 0 1440 1322" fill="none" xmlns="http://www.w3.org/2000/svg">
<g opacity="0.05">
<path d="M380.955 1355.74H362.959V1264.43H288.811V1267.68H280.482V1281.7H288.811V1289.53H280.482V1303.53H288.811V1311.36H280.482V1325.38H288.811V1333.2H280.482V1347.21H288.811V1355.74H270.815V1244.77H321.802V1210.7H329.968V1216.18H338.297V1210.7H346.465V1216.18H354.791V1210.7H362.959V1216.18H371.288V1210.7H380.955V1355.74ZM362.959 1333.2V1347.21H371.288V1333.2H362.959ZM362.959 1311.36V1325.38H371.288V1311.36H362.959ZM362.959 1289.53V1303.53H371.288V1289.53H362.959ZM362.959 1267.68V1281.7H371.288V1267.68H362.959ZM362.959 1245.85V1259.86H371.288V1245.85H362.959ZM346.465 1245.85V1259.86H354.791V1245.85H346.465ZM329.968 1245.85V1259.86H338.297V1245.85H329.968ZM313.474 1245.85V1259.86H321.802V1245.85H313.474ZM296.977 1245.85V1259.86H305.308V1245.85H296.977ZM280.482 1245.85V1259.86H288.811V1245.85H280.482ZM362.959 1224.01V1238.02H371.288V1224.01H362.959ZM346.465 1224.01V1238.02H354.791V1224.01H346.465ZM329.968 1224.01V1238.02H338.297V1224.01H329.968Z" fill="white"/>
<path d="M362.959 1375.76H346.448V1372.56H346.765V1360.75H346.448V1358.59H362.959V1375.76ZM352.855 1360.75V1372.56H356.301V1360.75H352.855ZM305.319 1375.76H288.811V1358.59H305.319V1360.75H305.166V1372.56H305.319V1375.76ZM295.63 1360.75V1372.56H299.076V1360.75H295.63ZM362.959 1355.74H346.448V1326.82H305.319V1355.74H288.811V1347.21V1333.2V1325.38V1311.36V1303.53V1289.53V1281.7V1267.68V1264.44H362.959V1355.74ZM346.465 1333.2V1347.21H354.791V1333.2H346.465ZM296.977 1333.2V1347.21H305.308V1333.2H296.977ZM346.465 1311.36V1325.38H354.791V1311.36H346.465ZM329.968 1311.36V1325.38H338.297V1311.36H329.968ZM313.474 1311.36V1325.38H321.802V1311.36H313.474ZM296.977 1311.36V1325.38H305.308V1311.36H296.977ZM346.465 1289.53V1303.53H354.791V1289.53H346.465ZM329.968 1289.53V1303.53H338.297V1289.53H329.968ZM313.474 1289.53V1303.53H321.802V1289.53H313.474ZM296.977 1289.53V1303.53H305.308V1289.53H296.977ZM346.465 1267.68V1281.7H354.791V1267.68H346.465ZM329.968 1267.68V1281.7H338.297V1267.68H329.968ZM313.474 1267.68V1281.7H321.802V1267.68H313.474ZM296.977 1267.68V1281.7H305.308V1267.68H296.977Z" fill="white"/>
<path d="M280.482 1325.38H288.812V1311.36H280.482V1325.38Z" fill="white"/>
<path d="M296.977 1325.38H305.308V1311.36H296.977V1325.38Z" fill="white"/>
<path d="M313.474 1325.38H321.803V1311.36H313.474V1325.38Z" fill="white"/>
<path d="M329.968 1325.38H338.297V1311.36H329.968V1325.38Z" fill="white"/>
<path d="M346.465 1325.38H354.791V1311.36H346.465V1325.38Z" fill="white"/>
<path d="M362.959 1325.38H371.288V1311.36H362.959V1325.38Z" fill="white"/>
<path d="M280.482 1303.53H288.812V1289.53H280.482V1303.53Z" fill="white"/>
<path d="M296.977 1303.53H305.308V1289.53H296.977V1303.53Z" fill="white"/>
<path d="M313.474 1303.53H321.803V1289.53H313.474V1303.53Z" fill="white"/>
<path d="M329.968 1303.53H338.297V1289.53H329.968V1303.53Z" fill="white"/>
<path d="M346.465 1303.53H354.791V1289.53H346.465V1303.53Z" fill="white"/>
<path d="M362.959 1303.53H371.288V1289.53H362.959V1303.53Z" fill="white"/>
<path d="M280.482 1281.7H288.812V1267.69H280.482V1281.7Z" fill="white"/>
<path d="M296.977 1281.7H305.308V1267.69H296.977V1281.7Z" fill="white"/>
<path d="M313.474 1281.7H321.803V1267.69H313.474V1281.7Z" fill="white"/>
<path d="M329.968 1281.7H338.297V1267.69H329.968V1281.7Z" fill="white"/>
<path d="M346.465 1281.7H354.791V1267.69H346.465V1281.7Z" fill="white"/>
<path d="M362.959 1281.7H371.288V1267.69H362.959V1281.7Z" fill="white"/>
<path d="M280.482 1259.86H288.812V1245.85H280.482V1259.86Z" fill="white"/>
<path d="M296.977 1259.86H305.308V1245.85H296.977V1259.86Z" fill="white"/>
<path d="M313.474 1259.86H321.803V1245.85H313.474V1259.86Z" fill="white"/>
<path d="M329.968 1259.86H338.297V1245.85H329.968V1259.86Z" fill="white"/>
<path d="M346.465 1259.86H354.791V1245.85H346.465V1259.86Z" fill="white"/>
<path d="M362.959 1259.86H371.288V1245.85H362.959V1259.86Z" fill="white"/>
<path d="M329.968 1238.02H338.297V1224.01H329.968V1238.02Z" fill="white"/>
<path d="M346.465 1238.02H354.791V1224.01H346.465V1238.02Z" fill="white"/>
<path d="M362.959 1238.02H371.288V1224.01H362.959V1238.02Z" fill="white"/>
<path d="M329.968 1216.18H338.297V1210.7H329.968V1216.18Z" fill="white"/>
<path d="M346.465 1216.18H354.791V1210.7H346.465V1216.18Z" fill="white"/>
<path d="M362.959 1216.18H371.288V1210.7H362.959V1216.18Z" fill="white"/>
<path d="M630.49 1518.85H625.168V1478.71H587.346V1405.34H567.809V1313.4H625.098V1305.42H642.219V1300.57H655.728V1297.86H642.219V1165.5H713.752V1125.51H734.903V1270.16H749.939V1267.04L760.391 1268.61V1294.28H748.616V1405.34H718.221V1435.08H707.362V1478.71H647.535V1510.78H642.211V1478.71H630.49V1518.85Z" fill="white"/>
<path d="M2019.15 1108.7H1989.34L1996.76 1078.37H2019.15V1108.7ZM-240.182 1108.7H-296.508V1101.37H-283.52V1096.91H-240.182V1108.7Z" fill="white"/>
<path d="M1019.59 1208.87H1003.97L989.065 1162.01V1141.28H1019.59V1208.87Z" fill="white"/>
<path d="M2051.74 1078.37H1996.76L2002.4 1055.28H2051.74V1078.37ZM-350.426 1078.37H-379.591V1056.8H-350.426V1078.37ZM1855.35 1073.38H1774.28V1065.55H1855.35V1073.38ZM1262.68 1073.38H1226.13V1069.17H1231.73V1068H1262.68V1073.38ZM1097.66 1073.38H1066.56V1040.54H1097.66V1066.61H1092.06V1069.17H1097.66V1073.38ZM941.384 1073.38H921.062V1068H941.384V1073.38ZM734.903 1073.38H713.752V1045.98H734.903V1073.38ZM388.011 1073.38H321.802V1045.98H375.879L388.011 1073.38ZM-232.644 1073.38H-240.183H-283.52V1049.09H-232.644V1073.38Z" fill="white"/>
<path d="M925.805 1440.87H924.208V1410.36H918.025V1392.56H900.41V1371.37H867.738V1315.7H860.946V1283.65L863.245 1284V1290.07H878.28V1286.25L906.026 1290.4V1296.28H921.062V1125.51H941.384V1141.28H989.064V1162.01V1315.7H982.524V1371.37H949.601V1392.56H931.986V1410.36H925.805V1440.87Z" fill="white"/>
<path d="M1097.66 1251.77H1012.38V1249.99H1019.59V1208.87V1141.28H1066.56V1125.51H1097.66V1135.53H1092.06V1138.09H1097.66V1169.99H1092.06V1172.55H1097.66V1204.45H1092.06V1207.01H1097.66V1238.91H1092.06V1241.46H1097.66V1251.77Z" fill="white"/>
<path d="M445.046 1210.7H321.802V1186.12H365.783V1073.38H321.802H388.011L402.831 1106.87H436.373V1190.57H445.046V1210.7Z" fill="white"/>
<path d="M170.541 1125.51H204.303V1097.17H170.541V1125.51Z" fill="white"/>
<path d="M223.061 1289.96H206.433V1278.09H193.27V1237.62H190.5V1278.09H184.265V1244.4H181.492V1278.09H173.829V1289.96H169.715V1153.27H182.542V1148.61H170.541V1125.51H204.304V1233.32V1244.77V1251.89H200.04V1254.39H223.061V1289.96Z" fill="white"/>
<path d="M184.265 1333.83H181.492V1300.13H184.265V1333.83ZM184.265 1278.09H181.492V1244.4H184.265V1278.09Z" fill="white"/>
<path d="M193.27 1327.04H190.5V1300.13H193.27V1327.04ZM193.27 1278.09H190.5V1237.62H193.27V1278.09Z" fill="white"/>
<path d="M206.433 1300.13H173.829V1278.09H206.433V1289.96V1300.13Z" fill="white"/>
<path d="M655.728 1300.57H454.441V1297.86H655.728V1300.57Z" fill="white"/>
<path d="M518.488 1190.57H513.984V1177.32H518.488V1190.57ZM511.906 1190.57H467.95H445.046H436.374V1106.87H454.441V1154.68H507.449V1175.25H501.077V1177.32H511.906V1190.57Z" fill="white"/>
<path d="M71.3352 1234.02H39.4646V1231.05H24.2217V1234.02H10.3665V1231.05H-3.49139V1234.02H-30.4438V1228.08H71.3352V1234.02ZM-112.956 1234.02H-132.223V1228.08H-112.956V1234.02Z" fill="white"/>
<path d="M10.3666 1250.12H-3.49133V1231.05H10.3666V1234.02V1250.12Z" fill="white"/>
<path d="M39.4646 1250.12H24.2217V1231.05H39.4646V1234.02V1250.12Z" fill="white"/>
<path d="M1518.32 1125.51H1485.54L1500.45 1108.7H1513.21V1106.41H1518.32V1125.51ZM1482.56 1125.51H1450.43V1108.7H1497.47L1482.56 1125.51ZM1262.68 1125.51H1231.55L1226.13 1119.4V1108.7H1262.68V1125.51ZM1228.57 1125.51H1226.13V1122.76L1228.57 1125.51ZM1097.66 1125.51H1066.56V1073.38H1097.66V1101.07H1092.06V1103.63H1097.66V1125.51ZM941.384 1125.51H921.062V1073.38H941.384V1125.51ZM734.903 1125.51H713.752V1073.38H734.903V1125.51ZM635.406 1125.51H625.098V1092H635.406V1125.51ZM1518.32 1101.86H1450.43V1099.18L1518.32 1080.78V1101.86ZM1262.68 1101.86H1231.73V1101.07H1226.13V1073.38H1262.68V1101.86Z" fill="white"/>
<path d="M1363.34 1379.31C1356.83 1379.31 1351.55 1376.08 1351.55 1372.1C1351.55 1368.47 1355.95 1365.47 1361.66 1364.96L1361.12 1354.81C1359.77 1354.83 1358.41 1354.85 1357.06 1354.85C1340.57 1354.85 1324.5 1353.18 1309.36 1349.97L1304.61 1358.22C1308.89 1359.3 1311.91 1361.87 1311.91 1364.89C1311.91 1368.87 1306.64 1372.1 1300.12 1372.1C1293.61 1372.1 1288.33 1368.87 1288.33 1364.89C1288.33 1360.91 1293.61 1357.68 1300.12 1357.68C1301.25 1357.68 1302.34 1357.77 1303.37 1357.96L1308.12 1349.7C1289.77 1345.7 1272.81 1339.42 1258.2 1331.1L1249.58 1336.72C1251.51 1338.01 1252.69 1339.72 1252.69 1341.6C1252.69 1345.58 1247.41 1348.81 1240.9 1348.81C1234.39 1348.81 1229.11 1345.58 1229.11 1341.6C1229.11 1337.62 1234.39 1334.39 1240.9 1334.39C1243.87 1334.39 1246.57 1335.06 1248.65 1336.17L1257.25 1330.55C1256.27 1329.98 1255.29 1329.4 1254.33 1328.82C1242.18 1321.38 1232.44 1312.86 1225.37 1303.61L1214.42 1306.7C1214.82 1307.42 1215.03 1308.19 1215.03 1309C1215.03 1312.98 1209.76 1316.21 1203.24 1316.21C1196.73 1316.21 1191.45 1312.98 1191.45 1309C1191.45 1305.01 1196.73 1301.79 1203.24 1301.79C1207.98 1301.79 1212.06 1303.49 1213.93 1305.95L1224.82 1302.88C1220.33 1296.87 1216.96 1290.56 1214.77 1284.05H1218.79C1220.92 1290.21 1224.14 1296.18 1228.39 1301.87L1265.41 1291.42C1260.15 1284.35 1257.01 1276.57 1256.49 1268.38L1226.13 1268.98V1268.18L1256.44 1267.58C1256.42 1267.05 1256.41 1266.51 1256.41 1265.98C1256.41 1258.64 1258.52 1251.61 1262.38 1245.08L1226.13 1236.92V1236.06L1262.84 1244.33C1267.47 1236.81 1274.44 1229.99 1283.21 1224.19L1253.47 1207.15C1241.7 1214.89 1232.5 1223.73 1226.13 1233.28V1227.37C1232.38 1219.45 1240.58 1212.09 1250.6 1205.5L1241.57 1200.33C1239.46 1201.57 1236.59 1202.32 1233.44 1202.32C1230.68 1202.32 1228.14 1201.75 1226.13 1200.78V1189.45C1228.14 1188.48 1230.68 1187.9 1233.44 1187.9C1239.95 1187.9 1245.22 1191.13 1245.22 1195.11C1245.22 1196.88 1244.19 1198.49 1242.47 1199.75L1251.5 1204.92C1252.43 1204.32 1253.37 1203.72 1254.33 1203.14C1263.54 1197.51 1273.76 1192.72 1284.75 1188.86L1282.1 1185.87H1285.09L1287.03 1188.07C1287.91 1187.77 1288.8 1187.47 1289.7 1187.19V1189.92C1289.43 1190 1289.17 1190.09 1288.9 1190.18L1289.7 1191.08V1194.44L1286.62 1190.97C1275.96 1194.73 1266.04 1199.37 1257.11 1204.84C1256.18 1205.4 1255.27 1205.98 1254.37 1206.56L1284.1 1223.6C1290.56 1219.45 1297.95 1215.84 1306.08 1212.91L1296.39 1201.98H1299.37L1308.35 1212.11C1311.54 1211.03 1314.83 1210.05 1318.22 1209.18L1304.94 1189.4V1187.29L1319.43 1208.87C1329.91 1206.28 1341.26 1204.74 1353.13 1204.46L1352.14 1185.87H1353.45L1354.44 1204.43C1355.31 1204.41 1356.18 1204.41 1357.06 1204.41C1368.55 1204.41 1379.6 1205.59 1389.89 1207.77L1393.23 1201.98H1394.62L1393.08 1204.66L1391.13 1208.04C1391.69 1208.16 1392.25 1208.29 1392.8 1208.42C1397.28 1209.47 1401.61 1210.7 1405.76 1212.11L1414.74 1201.98H1417.72L1408.03 1212.91C1414.27 1215.16 1420.08 1217.81 1425.36 1220.8L1453.22 1202.61C1449.66 1200.58 1445.95 1198.68 1442.12 1196.9V1193.91C1446.91 1196.04 1451.52 1198.35 1455.91 1200.85L1467.43 1193.33C1464.96 1192.01 1463.39 1190.07 1463.39 1187.9C1463.39 1183.92 1468.67 1180.69 1475.18 1180.69C1481.69 1180.69 1486.97 1183.92 1486.97 1187.9C1486.97 1191.89 1481.69 1195.11 1475.18 1195.11C1472.69 1195.11 1470.37 1194.64 1468.47 1193.83L1456.86 1201.4C1457.85 1201.97 1458.82 1202.55 1459.78 1203.14C1471.93 1210.57 1481.67 1219.1 1488.75 1228.35L1501.57 1224.72C1501.34 1224.16 1501.22 1223.57 1501.22 1222.96C1501.22 1218.98 1506.5 1215.74 1513.01 1215.74C1519.52 1215.74 1524.8 1218.98 1524.8 1222.96C1524.8 1226.94 1519.52 1230.17 1513.01 1230.17C1507.95 1230.17 1503.65 1228.22 1501.97 1225.49L1489.3 1229.08C1497.11 1239.54 1501.53 1250.91 1502.23 1262.69L1516.04 1262.41C1516.21 1258.52 1521.42 1255.4 1527.82 1255.4C1534.33 1255.4 1539.61 1258.62 1539.61 1262.61C1539.61 1266.59 1534.33 1269.82 1527.82 1269.82C1521.64 1269.82 1516.58 1266.92 1516.08 1263.22L1502.27 1263.49C1502.31 1264.32 1502.33 1265.15 1502.33 1265.98C1502.33 1276.49 1499.36 1286.72 1493.68 1296.32L1505.21 1298.92C1507.02 1296.36 1511.19 1294.57 1516.03 1294.57C1522.55 1294.57 1527.82 1297.8 1527.82 1301.79C1527.82 1305.77 1522.55 1309 1516.03 1309C1509.52 1309 1504.24 1305.77 1504.24 1301.79C1504.24 1301.05 1504.42 1300.34 1504.76 1299.67L1493.23 1297.07C1486.65 1307.86 1476.64 1317.82 1463.51 1326.45L1472.54 1331.63C1474.65 1330.39 1477.52 1329.63 1480.68 1329.63C1487.19 1329.63 1492.46 1332.85 1492.46 1336.84C1492.46 1340.82 1487.19 1344.05 1480.68 1344.05C1474.16 1344.05 1468.89 1340.82 1468.89 1336.84C1468.89 1335.08 1469.92 1333.46 1471.64 1332.21L1462.61 1327.03C1461.68 1327.64 1460.74 1328.23 1459.78 1328.82C1446.11 1337.18 1430.2 1343.67 1412.88 1348.07L1417.84 1355.47C1418.97 1355.25 1420.17 1355.13 1421.41 1355.13C1427.92 1355.13 1433.2 1358.36 1433.2 1362.34C1433.2 1366.33 1427.92 1369.56 1421.41 1369.56C1414.9 1369.56 1409.62 1366.33 1409.62 1362.34C1409.62 1359.41 1412.5 1356.88 1416.62 1355.76L1411.67 1348.38C1402.22 1350.72 1392.37 1352.45 1382.24 1353.52C1375.74 1354.21 1369.13 1354.64 1362.43 1354.79L1362.97 1364.9L1363.34 1364.89C1369.85 1364.89 1375.13 1368.12 1375.13 1372.1C1375.13 1376.08 1369.85 1379.31 1363.34 1379.31ZM1324.22 1324.18L1310.67 1347.7C1325.39 1350.82 1341.02 1352.44 1357.06 1352.44C1358.37 1352.44 1359.68 1352.43 1360.99 1352.41L1359.67 1327.53C1358.8 1327.54 1357.93 1327.55 1357.06 1327.55C1345.56 1327.55 1334.51 1326.36 1324.22 1324.18ZM1384.3 1325.25C1376.84 1326.54 1369.03 1327.31 1360.98 1327.5L1362.3 1352.38C1369.11 1352.23 1375.82 1351.79 1382.42 1351.06C1391.97 1350.01 1401.26 1348.36 1410.17 1346.16L1394.68 1323.08C1391.31 1323.92 1387.84 1324.64 1384.3 1325.25ZM1288.75 1311.16L1260.89 1329.34C1275.1 1337.43 1291.58 1343.54 1309.43 1347.44L1322.98 1323.91C1310.17 1321.08 1298.56 1316.71 1288.75 1311.16ZM1430.01 1308.35C1420.46 1314.5 1408.86 1319.45 1395.89 1322.78L1411.38 1345.85C1428.23 1341.56 1443.71 1335.25 1457 1327.12C1457.93 1326.55 1458.84 1325.97 1459.75 1325.39L1430.01 1308.35ZM1265.96 1292.14L1228.93 1302.6C1235.82 1311.6 1245.29 1319.89 1257.11 1327.12C1258.04 1327.69 1258.98 1328.25 1259.93 1328.8L1287.79 1310.61C1278.77 1305.36 1271.33 1299.11 1265.96 1292.14ZM1355.05 1270.67L1324.87 1323.04C1334.96 1325.18 1345.79 1326.35 1357.06 1326.35C1357.91 1326.35 1358.76 1326.34 1359.61 1326.32L1356.66 1270.82C1356.1 1270.8 1355.57 1270.75 1355.05 1270.67ZM1359.45 1270.6C1358.97 1270.7 1358.48 1270.76 1357.97 1270.79L1360.92 1326.29C1369.03 1326.1 1376.89 1325.31 1384.39 1323.98C1387.64 1323.41 1390.83 1322.74 1393.93 1321.97L1385.46 1309.34L1359.45 1270.6ZM1451.27 1287.63C1446.64 1295.15 1439.67 1301.97 1430.91 1307.76L1460.64 1324.81C1473.4 1316.41 1483.15 1306.73 1489.54 1296.24L1451.27 1287.63ZM1352.13 1269.78L1290.09 1310.28C1299.7 1315.72 1311.08 1320.01 1323.64 1322.78L1353.81 1270.4C1353.21 1270.24 1352.64 1270.02 1352.13 1269.78ZM1385.59 1307.43L1395.15 1321.67C1407.86 1318.4 1419.22 1313.55 1428.58 1307.53L1387.31 1283.87L1362.37 1269.57C1361.86 1269.86 1361.28 1270.1 1360.66 1270.29L1385.59 1307.43ZM1350.16 1268.37L1267.75 1291.64C1273.01 1298.46 1280.29 1304.59 1289.13 1309.73L1351.17 1269.23C1350.79 1268.96 1350.44 1268.68 1350.16 1268.37ZM1387.39 1282.81L1429.47 1306.94C1438.06 1301.26 1444.89 1294.58 1449.43 1287.21L1388.07 1273.39L1364.24 1268.02C1363.98 1268.37 1363.65 1268.69 1363.27 1268.99L1387.39 1282.81ZM1498.34 1263.57L1457.67 1264.38C1457.69 1264.91 1457.7 1265.44 1457.7 1265.98C1457.7 1273.31 1455.59 1280.34 1451.73 1286.87L1489.99 1295.49C1495.51 1286.15 1498.4 1276.2 1498.4 1265.98C1498.4 1265.17 1498.38 1264.37 1498.34 1263.57ZM1349.18 1266.53L1258.46 1268.34C1258.96 1276.36 1262.04 1283.98 1267.19 1290.91L1349.61 1267.64C1349.4 1267.29 1349.26 1266.92 1349.18 1266.53ZM1388.13 1272.55L1449.89 1286.46C1453.67 1280.06 1455.74 1273.16 1455.74 1265.98C1455.74 1265.46 1455.73 1264.94 1455.7 1264.41L1388.63 1265.75L1364.97 1266.22C1364.94 1266.58 1364.85 1266.93 1364.69 1267.27L1388.13 1272.55ZM1264.22 1245.49C1260.44 1251.89 1258.37 1258.79 1258.37 1265.98C1258.37 1266.5 1258.38 1267.02 1258.41 1267.54L1349.14 1265.74C1349.17 1265.37 1349.26 1265.02 1349.41 1264.68L1264.22 1245.49ZM1389.24 1257.33L1364.5 1264.31C1364.71 1264.66 1364.86 1265.04 1364.93 1265.42L1388.69 1264.94L1455.66 1263.62C1455.15 1255.59 1452.08 1247.97 1446.92 1241.04L1389.24 1257.33ZM1284.64 1225.01C1276.05 1230.69 1269.22 1237.38 1264.68 1244.75L1349.87 1263.93C1350.08 1263.65 1350.34 1263.39 1350.63 1263.14L1350.09 1262.53L1284.64 1225.01ZM1390.14 1244.96L1365.11 1261.3L1363.48 1263.14L1363.95 1263.59L1389.31 1256.43L1446.36 1240.31C1441.1 1233.49 1433.82 1227.36 1424.98 1222.22L1390.14 1244.96ZM1485.73 1230.08L1448.7 1240.54C1453.97 1247.61 1457.1 1255.39 1457.62 1263.57L1498.3 1262.77C1497.62 1251.32 1493.32 1240.26 1485.73 1230.08ZM1390.47 1209.18L1360.3 1261.55C1360.73 1261.67 1361.15 1261.81 1361.53 1261.98L1391.35 1228.36L1404.82 1213.17C1400.94 1211.84 1396.89 1210.68 1392.71 1209.69C1391.97 1209.51 1391.22 1209.34 1390.47 1209.18ZM1318.97 1210.29C1315.64 1211.14 1312.41 1212.1 1309.29 1213.17L1352.58 1261.98C1352.85 1261.86 1353.15 1261.76 1353.45 1261.66L1318.97 1210.29ZM1353.2 1205.66C1341.56 1205.93 1330.45 1207.45 1320.18 1209.98L1354.66 1261.35C1355.14 1261.26 1355.63 1261.2 1356.14 1261.16L1353.2 1205.66ZM1357.06 1205.6C1356.2 1205.6 1355.35 1205.62 1354.5 1205.63L1357.45 1261.13C1358.01 1261.15 1358.54 1261.2 1359.06 1261.29L1389.24 1208.91C1379.15 1206.77 1368.32 1205.6 1357.06 1205.6ZM1307.02 1213.96C1299.08 1216.84 1291.84 1220.36 1285.53 1224.43L1348.11 1260.3L1307.02 1213.96ZM1391.09 1232.02L1367.58 1258.52L1390.23 1243.73L1424.02 1221.68C1418.85 1218.75 1413.18 1216.17 1407.1 1213.96L1391.09 1232.02ZM1454.18 1203.15L1426.32 1221.34C1435.34 1226.59 1442.78 1232.84 1448.15 1239.81L1485.18 1229.36C1478.29 1220.36 1468.82 1212.07 1457 1204.84C1456.07 1204.27 1455.13 1203.71 1454.18 1203.15ZM1450.43 1165.1V1161.74L1482.56 1125.51L1497.47 1108.7H1450.43V1101.86H1518.32V1106.41H1513.21V1108.7H1500.45L1485.54 1125.51L1450.43 1165.1ZM1262.68 1163.97L1228.57 1125.51L1226.13 1122.76V1119.4L1231.55 1125.51L1262.68 1160.61V1163.97ZM1262.68 1108.7H1226.13V1103.63H1231.73V1101.86H1262.68V1108.7Z" fill="white"/>
<path d="M1226.13 1274.48H1097.66V1241.46H1226.13V1268.18V1268.98V1274.48ZM1198.8 1245.92V1266.16H1212.14V1245.92H1198.8ZM1168.94 1245.92V1266.16H1182.28V1245.92H1168.94ZM1139.08 1245.92V1266.16H1152.43V1245.92H1139.08ZM1109.23 1245.92V1266.16H1122.57V1245.92H1109.23ZM1226.13 1238.91H1097.66V1207.01H1226.13V1227.36V1233.28V1236.06V1236.92V1238.91ZM1198.8 1212.84V1233.08H1212.14V1212.84H1198.8ZM1168.94 1212.84V1233.08H1182.28V1212.84H1168.94ZM1139.08 1212.84V1233.08H1152.43V1212.84H1139.08ZM1109.23 1212.84V1233.08H1122.57V1212.84H1109.23ZM1226.13 1204.45H1097.66V1172.55H1226.13V1189.45V1200.78V1204.45ZM1198.8 1178.38V1198.62H1212.14V1178.38H1198.8ZM1168.94 1178.38V1198.62H1182.28V1178.38H1168.94ZM1139.08 1178.38V1198.62H1152.43V1178.38H1139.08ZM1109.23 1178.38V1198.62H1122.57V1178.38H1109.23ZM1226.13 1169.99H1097.66V1138.09H1226.13V1169.99ZM1198.8 1143.93V1164.16H1212.14V1143.93H1198.8ZM1168.94 1143.93V1164.16H1182.28V1143.93H1168.94ZM1139.08 1143.93V1164.16H1152.43V1143.93H1139.08ZM1109.23 1143.93V1164.16H1122.57V1143.93H1109.23ZM1226.13 1135.53H1097.66V1125.51V1103.63H1226.13V1108.7V1119.4V1122.76V1125.51V1135.53ZM1198.8 1109.47V1129.7H1212.14V1109.47H1198.8ZM1168.94 1109.47V1129.7H1182.28V1109.47H1168.94ZM1139.08 1109.47V1129.7H1152.43V1109.47H1139.08ZM1109.23 1109.47V1129.7H1122.57V1109.47H1109.23ZM1226.13 1101.07H1097.66V1073.38V1069.17H1226.13V1073.38V1101.07ZM1198.8 1075V1095.24H1212.14V1075H1198.8ZM1168.94 1075V1095.24H1182.28V1075H1168.94ZM1139.08 1075V1095.24H1152.43V1075H1139.08ZM1109.23 1075V1095.24H1122.57V1075H1109.23ZM1202.56 1066.62H1097.66V1040.54H1109.23V1060.78H1122.57V1040.54H1139.08V1060.78H1152.43V1040.54V1025.24H1097.66H1226.13H1202.56V1040.54H1198.8V1060.78H1202.56V1066.62ZM1168.94 1040.54V1060.78H1182.28V1040.54H1168.94Z" fill="white"/>
<path d="M1235.72 1277.04H1088.07V1274.48H1235.72V1277.04Z" fill="white"/>
<path d="M1231.73 1241.46H1092.06V1238.91H1231.73V1241.46Z" fill="white"/>
<path d="M1231.73 1207.01H1092.06V1204.45H1231.73V1207.01Z" fill="white"/>
<path d="M1231.73 1172.55H1092.06V1169.99H1231.73V1172.55Z" fill="white"/>
<path d="M1231.73 1138.09H1092.06V1135.53H1231.73V1138.09Z" fill="white"/>
<path d="M1231.73 1103.63H1092.06V1101.07H1231.73V1101.86V1103.63Z" fill="white"/>
<path d="M1231.73 1069.17H1092.06V1066.62H1202.56V1068H1231.73V1069.17Z" fill="white"/>
<path d="M1240.61 1284.05H1149.47V1280.55H1105.77V1284.05H1083.19V1277.04H1097.67H1226.13H1240.61V1284.05Z" fill="white"/>
<path d="M1109.23 1266.16H1122.57V1245.92H1109.23V1266.16Z" fill="white"/>
<path d="M1139.08 1266.16H1152.43V1245.92H1139.08V1266.16Z" fill="white"/>
<path d="M1168.94 1266.16H1182.28V1245.92H1168.94V1266.16Z" fill="white"/>
<path d="M1198.79 1266.16H1212.14V1245.92H1198.79V1266.16Z" fill="white"/>
<path d="M1109.23 1233.08H1122.57V1212.84H1109.23V1233.08Z" fill="white"/>
<path d="M1139.08 1233.08H1152.43V1212.84H1139.08V1233.08Z" fill="white"/>
<path d="M1168.94 1233.08H1182.28V1212.84H1168.94V1233.08Z" fill="white"/>
<path d="M1198.79 1233.08H1212.14V1212.84H1198.79V1233.08Z" fill="white"/>
<path d="M1109.23 1198.62H1122.57V1178.38H1109.23V1198.62Z" fill="white"/>
<path d="M1139.08 1198.62H1152.43V1178.38H1139.08V1198.62Z" fill="white"/>
<path d="M1168.94 1198.62H1182.28V1178.38H1168.94V1198.62Z" fill="white"/>
<path d="M1198.79 1198.62H1212.14V1178.38H1198.79V1198.62Z" fill="white"/>
<path d="M1109.23 1164.16H1122.57V1143.93H1109.23V1164.16Z" fill="white"/>
<path d="M1139.08 1164.16H1152.43V1143.93H1139.08V1164.16Z" fill="white"/>
<path d="M1168.94 1164.16H1182.28V1143.93H1168.94V1164.16Z" fill="white"/>
<path d="M1198.79 1164.16H1212.14V1143.93H1198.79V1164.16Z" fill="white"/>
<path d="M1109.23 1129.7H1122.57V1109.47H1109.23V1129.7Z" fill="white"/>
<path d="M1139.08 1129.7H1152.43V1109.47H1139.08V1129.7Z" fill="white"/>
<path d="M1168.94 1129.7H1182.28V1109.47H1168.94V1129.7Z" fill="white"/>
<path d="M1198.79 1129.7H1212.14V1109.47H1198.79V1129.7Z" fill="white"/>
<path d="M1109.23 1095.24H1122.57V1075H1109.23V1095.24Z" fill="white"/>
<path d="M1139.08 1095.24H1152.43V1075H1139.08V1095.24Z" fill="white"/>
<path d="M1168.94 1095.24H1182.28V1075H1168.94V1095.24Z" fill="white"/>
<path d="M1198.79 1095.24H1212.14V1075H1198.79V1095.24Z" fill="white"/>
<path d="M1109.23 1060.78H1122.57V1040.54H1109.23V1060.78Z" fill="white"/>
<path d="M1139.08 1060.78H1152.43V1040.54H1139.08V1060.78Z" fill="white"/>
<path d="M1168.94 1060.78H1182.28V1040.54H1168.94V1060.78Z" fill="white"/>
<path d="M1198.79 1060.78H1202.56V1040.54H1198.79V1060.78Z" fill="white"/>
<path d="M1149.47 1291.83H1105.77V1280.55H1149.47V1284.05V1291.83Z" fill="white"/>
<path d="M1152.43 1294.08H1102.81V1291.83H1152.43V1294.08Z" fill="white"/>
<path d="M906.026 1290.4L878.281 1286.25V1025.24H863.245V1284L860.947 1283.65L835.502 1279.85V1025.24H820.466H792.72H777.685H749.939H742.422H913.546H906.026H902.133V1068H906.026V1290.4ZM882.176 1231V1249.6H902.133V1231H882.176ZM839.395 1231V1249.6H859.354V1231H839.395ZM882.176 1198.62V1217.22H902.133V1198.62H882.176ZM839.395 1198.62V1217.22H859.354V1198.62H839.395ZM882.176 1166.23V1184.83H902.133V1166.23H882.176ZM839.395 1166.23V1184.83H859.354V1166.23H839.395ZM882.176 1133.85V1152.44H902.133V1133.85H882.176ZM839.395 1133.85V1152.44H859.354V1133.85H839.395ZM882.176 1101.46V1120.06H902.133V1101.46H882.176ZM839.395 1101.46V1120.06H859.354V1101.46H839.395ZM882.176 1069.07V1087.67H902.133V1069.07H882.176ZM839.395 1069.07V1087.67H859.354V1069.07H839.395ZM882.176 1036.68V1055.28H902.133V1036.68H882.176ZM839.395 1036.68V1055.28H859.354V1036.68H839.395ZM820.466 1277.6L792.72 1273.45V1045.98H796.613V1055.28H816.57V1045.98H820.466V1277.6ZM796.613 1231V1249.6H816.57V1231H796.613ZM796.613 1198.62V1217.22H816.57V1198.62H796.613ZM796.613 1166.23V1184.83H816.57V1166.23H796.613ZM796.613 1133.85V1152.44H816.57V1133.85H796.613ZM796.613 1101.46V1120.06H816.57V1101.46H796.613ZM796.613 1069.07V1087.67H816.57V1069.07H796.613ZM777.685 1271.2L760.392 1268.61L749.939 1267.04V1045.98H753.832V1055.28H773.791V1045.98H777.685V1271.2ZM753.832 1231V1249.6H773.791V1231H753.832ZM753.832 1198.62V1217.22H773.791V1198.62H753.832ZM753.832 1166.23V1184.83H773.791V1166.23H753.832ZM753.832 1133.85V1152.44H773.791V1133.85H753.832ZM753.832 1101.46V1120.06H773.791V1101.46H753.832ZM753.832 1069.07V1087.67H773.791V1069.07H753.832Z" fill="white"/>
<path d="M749.939 1270.16H734.903V1045.98H749.939V1267.05V1270.16Z" fill="white"/>
<path d="M792.72 1277.06H777.685V1045.98H792.72V1273.45V1277.06Z" fill="white"/>
<path d="M835.502 1284.22H820.466V1045.98H833.032V1025.25H820.466H835.502V1279.85V1284.22Z" fill="white"/>
<path d="M878.28 1290.07H863.245V1025.25H878.28V1286.25V1290.07Z" fill="white"/>
<path d="M921.062 1296.28H906.026V1068H921.062V1073.38V1125.51V1296.28Z" fill="white"/>
<path d="M753.832 1249.6H773.792V1231H753.832V1249.6Z" fill="white"/>
<path d="M796.613 1249.6H816.57V1231H796.613V1249.6Z" fill="white"/>
<path d="M839.395 1249.6H859.354V1231H839.395V1249.6Z" fill="white"/>
<path d="M882.176 1249.6H902.133V1231H882.176V1249.6Z" fill="white"/>
<path d="M753.832 1217.22H773.792V1198.62H753.832V1217.22Z" fill="white"/>
<path d="M796.613 1217.22H816.57V1198.62H796.613V1217.22Z" fill="white"/>
<path d="M839.395 1217.22H859.354V1198.62H839.395V1217.22Z" fill="white"/>
<path d="M882.176 1217.22H902.133V1198.62H882.176V1217.22Z" fill="white"/>
<path d="M753.832 1184.83H773.792V1166.23H753.832V1184.83Z" fill="white"/>
<path d="M796.613 1184.83H816.57V1166.23H796.613V1184.83Z" fill="white"/>
<path d="M839.395 1184.83H859.354V1166.23H839.395V1184.83Z" fill="white"/>
<path d="M882.176 1184.83H902.133V1166.23H882.176V1184.83Z" fill="white"/>
<path d="M753.832 1152.44H773.792V1133.85H753.832V1152.44Z" fill="white"/>
<path d="M796.613 1152.44H816.57V1133.85H796.613V1152.44Z" fill="white"/>
<path d="M839.395 1152.44H859.354V1133.85H839.395V1152.44Z" fill="white"/>
<path d="M882.176 1152.44H902.133V1133.85H882.176V1152.44Z" fill="white"/>
<path d="M753.832 1120.06H773.792V1101.46H753.832V1120.06Z" fill="white"/>
<path d="M796.613 1120.06H816.57V1101.46H796.613V1120.06Z" fill="white"/>
<path d="M839.395 1120.06H859.354V1101.46H839.395V1120.06Z" fill="white"/>
<path d="M882.176 1120.06H902.133V1101.46H882.176V1120.06Z" fill="white"/>
<path d="M753.832 1087.67H773.792V1069.07H753.832V1087.67Z" fill="white"/>
<path d="M796.613 1087.67H816.57V1069.07H796.613V1087.67Z" fill="white"/>
<path d="M839.395 1087.67H859.354V1069.07H839.395V1087.67Z" fill="white"/>
<path d="M882.176 1087.67H902.133V1069.07H882.176V1087.67Z" fill="white"/>
<path d="M753.832 1055.28H773.792V1045.98H753.832V1055.28Z" fill="white"/>
<path d="M796.613 1055.28H816.57V1045.98H796.613V1055.28Z" fill="white"/>
<path d="M839.395 1055.28H859.354V1036.68H839.395V1055.28Z" fill="white"/>
<path d="M882.176 1055.28H902.133V1036.68H882.176V1055.28Z" fill="white"/>
<path d="M81.3872 1190.73H45.2143V1171.69H81.3872V1184.34V1190.73Z" fill="white"/>
<path d="M182.542 1153.27H87.5051V1148.61H182.542V1153.27Z" fill="white"/>
<path d="M260.921 1097.17H160.966V1025.25H260.921V1097.17Z" fill="white"/>
<path d="M485.068 1045.98H477.429V1035.62H371.288L375.879 1045.98H321.802H288.811V1025.25H321.802H454.441H485.068V1045.98Z" fill="white"/>
<path d="M833.032 1045.98H713.752V1036.68H658.724V1025.25H636.775H749.939H777.685H792.72H820.466H833.032V1045.98Z" fill="white"/>
<path d="M513.984 1210.54H511.906V1177.32H513.984V1190.57V1210.54ZM513.984 1152.44H511.906V1131.5H513.984V1152.44Z" fill="white"/>
<path d="M525.069 1183.8H522.299V1177.32H525.069V1183.8ZM525.069 1152.44H522.299V1137.15H525.069V1152.44Z" fill="white"/>
<path d="M551.062 1177.32H501.077V1175.25H551.062V1177.32Z" fill="white"/>
<path d="M635.406 1092H536.779V1025.25H658.724V1036.68H635.406V1092Z" fill="white"/>
<path d="M713.752 1165.5H635.406V1036.68H713.752V1045.98V1073.38V1125.51V1165.5Z" fill="white"/>
<path d="M1066.56 1141.28H941.384V1068H1044.85V1025.24H941.384H1066.56H1059.63V1040.54H1066.56V1073.38V1125.51V1141.28Z" fill="white"/>
<path d="M1044.85 1068H902.133V1025.25H1044.85V1068Z" fill="white"/>
<path d="M1152.43 1040.54H1059.63V1025.24H1066.56H1097.66H1152.43V1040.54Z" fill="white"/>
<path d="M1262.68 1068H1202.56V1025.25H1353.45H1262.68V1068Z" fill="white"/>
<path d="M1450.43 1179.94H1442.12V1170.62H1359.61V1179.94H1276.84H1262.68V1163.97V1160.61V1125.51V1108.7V1101.86V1073.38V1068V1025.25H1353.45H1450.43H1449.43V1099.45L1450.43 1099.18V1101.86V1108.7V1125.51V1161.74V1165.1V1179.94Z" fill="white"/>
<path d="M1461.39 1185.87H1442.12V1179.94H1461.39V1185.87ZM1359.61 1185.87H1353.45H1352.14H1332.65V1182.91H1318.8V1185.87H1304.94V1182.91H1289.7V1185.87H1285.09H1282.1H1257.83V1179.94H1276.84H1359.61V1185.87Z" fill="white"/>
<path d="M1442.12 1201.98H1359.61V1170.62H1442.12V1179.94V1185.87V1193.91V1196.9V1201.98Z" fill="white"/>
<path d="M1332.65 1201.98H1318.8V1182.91H1332.65V1185.87V1201.98Z" fill="white"/>
<path d="M1304.94 1201.98H1289.7V1182.91H1304.94V1185.87V1187.29V1189.4V1201.98Z" fill="white"/>
<path d="M270.815 889.437H380.955V333.574H270.815V889.437Z" fill="#6D9DC9"/>
<path d="M288.811 527.313H362.959V293.722H288.811V527.313Z" fill="#6D9DC9"/>
<path d="M305.319 398.01H346.449V268.445H305.319V398.01Z" fill="#6D9DC9"/>
<path d="M339.9 335.026H311.871V246.723H339.9V335.026Z" fill="#6D9DC9"/>
<path d="M324.041 296.573H320.998V208.273H324.041V296.573Z" fill="#6D9DC9"/>
<path d="M330.772 266.05H327.732V177.75H330.772V266.05Z" fill="#6D9DC9"/>
<path d="M383.894 338.071H267.876V332.15H383.894V338.071Z" fill="#6D9DC9"/>
<path d="M365.664 296.573H286.107V290.872H365.664V296.573Z" fill="#6D9DC9"/>
<path d="M348.174 270.419H302.323V266.05H348.174V270.419Z" fill="#6D9DC9"/>
<path d="M295.63 327.679H299.076V303.203H295.63V327.679Z" fill="#6D9DC9"/>
<path d="M305.166 327.679H305.319V303.203H305.166V327.679Z" fill="#6D9DC9"/>
<path d="M305.319 327.679H308.615V303.203H305.319V327.679Z" fill="#6D9DC9"/>
<path d="M314.706 327.679H318.152V303.203H314.706V327.679Z" fill="#6D9DC9"/>
<path d="M324.243 327.679H327.689V303.203H324.243V327.679Z" fill="#6D9DC9"/>
<path d="M333.779 327.679H337.229V303.203H333.779V327.679Z" fill="#6D9DC9"/>
<path d="M346.448 327.679H346.764V303.203H346.448V327.679Z" fill="#6D9DC9"/>
<path d="M343.319 327.679H346.449V303.203H343.319V327.679Z" fill="#6D9DC9"/>
<path d="M352.855 327.679H356.301V303.203H352.855V327.679Z" fill="#6D9DC9"/>
<path d="M288.811 384.775H280.482V355.738H288.811V384.775Z" fill="#6D9DC9"/>
<path d="M296.977 384.778H305.308V355.738H296.977V384.778Z" fill="#6D9DC9"/>
<path d="M321.803 384.775H313.474V355.738H321.803V384.775Z" fill="#6D9DC9"/>
<path d="M338.297 384.775H329.968V355.738H338.297V384.775Z" fill="#6D9DC9"/>
<path d="M354.791 384.775H346.465V355.738H354.791V384.775Z" fill="#6D9DC9"/>
<path d="M371.288 384.775H362.959V355.738H371.288V384.775Z" fill="#6D9DC9"/>
<path d="M288.811 430.042H280.482V401.001H288.811V430.042Z" fill="#6D9DC9"/>
<path d="M305.305 430.042H296.977V401.001H305.305V430.042Z" fill="#6D9DC9"/>
<path d="M321.803 430.042H313.474V401.001H321.803V430.042Z" fill="#6D9DC9"/>
<path d="M329.968 430.042H338.297V401.001H329.968V430.042Z" fill="#6D9DC9"/>
<path d="M354.791 430.042H346.465V401.001H354.791V430.042Z" fill="#6D9DC9"/>
<path d="M371.288 430.042H362.959V401.001H371.288V430.042Z" fill="#6D9DC9"/>
<path d="M288.811 475.304H280.482V446.267H288.811V475.304Z" fill="#6D9DC9"/>
<path d="M305.305 475.304H296.977V446.267H305.305V475.304Z" fill="#6D9DC9"/>
<path d="M321.803 475.304H313.474V446.267H321.803V475.304Z" fill="#6D9DC9"/>
<path d="M338.297 475.304H329.968V446.267H338.297V475.304Z" fill="#6D9DC9"/>
<path d="M346.465 475.304H354.791V446.267H346.465V475.304Z" fill="#6D9DC9"/>
<path d="M362.959 475.304H371.288V446.267H362.959V475.304Z" fill="#6D9DC9"/>
<path d="M280.482 520.57H288.812V491.529H280.482V520.57Z" fill="#6D9DC9"/>
<path d="M305.305 520.57H296.977V491.53H305.305V520.57Z" fill="#6D9DC9"/>
<path d="M321.803 520.57H313.474V491.53H321.803V520.57Z" fill="#6D9DC9"/>
<path d="M338.297 520.57H329.968V491.53H338.297V520.57Z" fill="#6D9DC9"/>
<path d="M354.791 520.57H346.465V491.53H354.791V520.57Z" fill="#6D9DC9"/>
<path d="M371.288 520.57H362.959V491.53H371.288V520.57Z" fill="#6D9DC9"/>
<path d="M288.811 565.836H280.482V536.795H288.811V565.836Z" fill="#6D9DC9"/>
<path d="M296.977 565.836H305.308V536.796H296.977V565.836Z" fill="#6D9DC9"/>
<path d="M321.803 565.836H313.474V536.795H321.803V565.836Z" fill="#6D9DC9"/>
<path d="M329.968 565.836H338.297V536.796H329.968V565.836Z" fill="#6D9DC9"/>
<path d="M354.791 565.836H346.465V536.795H354.791V565.836Z" fill="#6D9DC9"/>
<path d="M371.288 565.836H362.959V536.795H371.288V565.836Z" fill="#6D9DC9"/>
<path d="M288.811 611.099H280.482V582.063H288.811V611.099Z" fill="#6D9DC9"/>
<path d="M305.305 611.099H296.977V582.063H305.305V611.099Z" fill="#6D9DC9"/>
<path d="M321.803 611.099H313.474V582.063H321.803V611.099Z" fill="#6D9DC9"/>
<path d="M338.297 611.099H329.968V582.063H338.297V611.099Z" fill="#6D9DC9"/>
<path d="M354.791 611.099H346.465V582.063H354.791V611.099Z" fill="#6D9DC9"/>
<path d="M362.959 611.099H371.288V582.063H362.959V611.099Z" fill="#6D9DC9"/>
<path d="M288.811 656.366H280.482V627.326H288.811V656.366Z" fill="#6D9DC9"/>
<path d="M296.977 656.366H305.308V627.325H296.977V656.366Z" fill="#6D9DC9"/>
<path d="M313.474 656.366H321.803V627.325H313.474V656.366Z" fill="#6D9DC9"/>
<path d="M338.297 656.366H329.968V627.326H338.297V656.366Z" fill="#6D9DC9"/>
<path d="M354.791 656.366H346.465V627.326H354.791V656.366Z" fill="#6D9DC9"/>
<path d="M371.288 656.366H362.959V627.326H371.288V656.366Z" fill="#6D9DC9"/>
<path d="M288.811 701.631H280.482V672.591H288.811V701.631Z" fill="#6D9DC9"/>
<path d="M305.305 701.631H296.977V672.591H305.305V701.631Z" fill="#6D9DC9"/>
<path d="M321.803 701.631H313.474V672.591H321.803V701.631Z" fill="#6D9DC9"/>
<path d="M338.297 701.631H329.968V672.591H338.297V701.631Z" fill="#6D9DC9"/>
<path d="M346.465 701.631H354.791V672.592H346.465V701.631Z" fill="#6D9DC9"/>
<path d="M371.288 701.631H362.959V672.591H371.288V701.631Z" fill="#6D9DC9"/>
<path d="M288.811 746.894H280.482V717.853H288.811V746.894Z" fill="#6D9DC9"/>
<path d="M296.977 746.894H305.308V717.853H296.977V746.894Z" fill="#6D9DC9"/>
<path d="M321.803 746.894H313.474V717.853H321.803V746.894Z" fill="#6D9DC9"/>
<path d="M338.297 746.894H329.968V717.853H338.297V746.894Z" fill="#6D9DC9"/>
<path d="M354.791 746.894H346.465V717.853H354.791V746.894Z" fill="#6D9DC9"/>
<path d="M371.288 746.894H362.959V717.853H371.288V746.894Z" fill="#6D9DC9"/>
<path d="M288.811 792.16H280.482V763.12H288.811V792.16Z" fill="#6D9DC9"/>
<path d="M305.305 792.16H296.977V763.12H305.305V792.16Z" fill="#6D9DC9"/>
<path d="M321.803 792.16H313.474V763.12H321.803V792.16Z" fill="#6D9DC9"/>
<path d="M329.968 792.16H338.297V763.119H329.968V792.16Z" fill="#6D9DC9"/>
<path d="M354.791 792.16H346.465V763.12H354.791V792.16Z" fill="#6D9DC9"/>
<path d="M362.959 792.16H371.288V763.119H362.959V792.16Z" fill="#6D9DC9"/>
<path d="M280.482 837.423H288.812V808.382H280.482V837.423Z" fill="#6D9DC9"/>
<path d="M305.305 837.423H296.977V808.383H305.305V837.423Z" fill="#6D9DC9"/>
<path d="M313.474 837.423H321.803V808.382H313.474V837.423Z" fill="#6D9DC9"/>
<path d="M338.297 837.423H329.968V808.383H338.297V837.423Z" fill="#6D9DC9"/>
<path d="M354.791 837.423H346.465V808.383H354.791V837.423Z" fill="#6D9DC9"/>
<path d="M371.288 837.423H362.959V808.383H371.288V837.423Z" fill="#6D9DC9"/>
<path d="M-49.062 822.984H127.99V354.719H-49.062V822.984Z" fill="#6D9DC9"/>
<path d="M133.024 359.903H-54.092V346.667H133.024V359.903Z" fill="#6D9DC9"/>
<path d="M-43.1102 392.632H122.04V329.726H-43.1102V392.632Z" fill="#6D9DC9"/>
<path d="M34.9279 372.722H-30.4684V303.984H34.9279V372.722Z" fill="#6D9DC9"/>
<path d="M7.37845 323.356H-30.4684V287.174H-3.3251L7.37845 323.356Z" fill="#6D9DC9"/>
<path d="M1594.17 858.629H1400.36L1376.18 170.155L1594.17 227.527V858.629Z" fill="#6D9DC9"/>
<path d="M748.617 465.448V235.27H718.221V173.615H707.362V83.1901H647.536V16.734H642.211V83.1901H630.491V-0.00012207H625.169V83.1901H587.347V235.27H567.81V465.448H551.062V884.693H760.392V465.448H748.617Z" fill="#6D9DC9"/>
<path d="M-296.508 919.925H2019.15V850.095H-296.508V919.925Z" fill="#6D9DC9"/>
<path d="M1066.56 902.817H964.015L1003.97 642.468H1066.56V902.817Z" fill="#1E619E"/>
<path d="M-379.591 1023.06H2051.74V912.953H-379.591V1023.06Z" fill="#1E619E"/>
<path d="M982.524 421.047V305.678H949.601V261.76H931.986V224.866H925.806V161.618H924.208V224.866H918.025V261.76H900.41V305.678H867.738V421.047H860.946V630.499H810.289V869.263H860.946H911.607H989.064V421.047H982.524Z" fill="#1E619E"/>
<path d="M1171.75 553.572H1012.38V557.243H1019.59V898.912H1164.53V557.243H1171.75V553.572Z" fill="#1E619E"/>
<path d="M445.046 923.288H303.751V638.673H445.046V923.288Z" fill="#1E619E"/>
<path d="M282.467 923.288H39.4645V784.493H282.467V923.288Z" fill="#1E619E"/>
<path d="M223.061 474.405H169.715V815.241H223.061V474.405Z" fill="#1E619E"/>
<path d="M184.265 568.836H181.492V383.485H184.265V568.836Z" fill="#1E619E"/>
<path d="M193.27 582.891H190.5V397.54H193.27V582.891Z" fill="#1E619E"/>
<path d="M206.433 499H173.829V453.323H206.433V499Z" fill="#1E619E"/>
<path d="M365.783 923.288H272.944V689.622H365.783V923.288Z" fill="#1E619E"/>
<path d="M467.95 923.288H642.219V442.347H467.95V923.288Z" fill="#1E619E"/>
<path d="M485.068 505.919H625.097V425.816H485.068V505.919Z" fill="#1E619E"/>
<path d="M655.728 458.034H454.441V452.41H655.728V458.034Z" fill="#1E619E"/>
<path d="M518.488 923.288H436.374V680.4H518.488V923.288Z" fill="#1E619E"/>
<path d="M-121.269 923.288H66.4855V602.657H-121.269V923.288Z" fill="#1E619E"/>
<path d="M71.3352 602.657H-132.223V590.358H71.3352V602.657Z" fill="#1E619E"/>
<path d="M10.3666 596.507H-3.49133V556.976H10.3666V596.507Z" fill="#1E619E"/>
<path d="M39.4646 596.507H24.2217V556.976H39.4646V596.507Z" fill="#1E619E"/>
<path d="M625.098 923.288H1606.16V815.241H625.098V923.288Z" fill="#1E619E"/>
<path d="M1485.73 598.512L1448.7 576.842C1453.97 562.189 1457.1 546.059 1457.62 529.09L1498.3 530.767C1497.62 554.501 1493.32 577.426 1485.73 598.512ZM1457 650.837C1456.07 652.016 1455.13 653.174 1454.18 654.318L1426.32 616.619C1435.34 605.751 1442.78 592.784 1448.15 578.345L1485.18 600.019C1478.29 618.665 1468.82 635.845 1457 650.837ZM1427.49 679.576L1408.03 634.106C1414.27 629.443 1420.08 623.95 1425.36 617.752L1453.22 655.455C1445.3 664.799 1436.67 672.867 1427.49 679.576ZM1497.47 850.094H1216.64L1287.03 685.595C1291.64 688.82 1296.38 691.713 1301.23 694.274L1296.27 709.602C1295.14 709.149 1293.94 708.903 1292.7 708.903C1286.19 708.903 1280.91 715.599 1280.91 723.85C1280.91 732.109 1286.19 738.801 1292.7 738.801C1299.21 738.801 1304.49 732.109 1304.49 723.85C1304.49 717.76 1301.61 712.526 1297.49 710.196L1302.45 694.904C1317.95 702.868 1334.55 707.4 1351.68 708.184L1351.28 723.861C1344.89 724.047 1339.76 730.66 1339.76 738.801C1339.76 747.056 1345.04 753.751 1351.55 753.751C1358.06 753.751 1363.34 747.056 1363.34 738.801C1363.34 730.989 1358.61 724.58 1352.59 723.913L1352.99 708.236C1354.34 708.281 1355.7 708.309 1357.06 708.309C1373.55 708.309 1389.62 704.845 1404.75 698.194L1408.99 713.435C1404.98 715.824 1402.2 720.985 1402.2 726.979C1402.2 735.23 1407.48 741.926 1413.99 741.926C1420.5 741.926 1425.78 735.23 1425.78 726.979C1425.78 718.721 1420.5 712.025 1413.99 712.025C1412.66 712.025 1411.39 712.305 1410.21 712.82L1405.99 697.648C1413.26 694.357 1420.31 690.33 1427.08 685.595L1497.47 850.094ZM1257.11 650.837C1256.18 649.658 1255.27 648.462 1254.37 647.256L1284.1 611.935C1290.55 620.556 1297.95 628.029 1306.08 634.106L1286.62 679.576C1275.96 671.785 1266.04 662.165 1257.11 650.837ZM1224.58 586.845L1262.84 568.984C1267.47 584.568 1274.44 598.709 1283.21 610.718L1253.47 646.049C1240.71 628.651 1230.96 608.575 1224.58 586.845ZM1215.71 524.116C1215.71 522.45 1215.73 520.784 1215.77 519.124L1256.44 520.797C1256.42 521.9 1256.41 523.006 1256.41 524.116C1256.41 539.312 1258.52 553.899 1262.38 567.426L1224.13 585.286C1218.6 565.936 1215.71 545.306 1215.71 524.116ZM1228.39 449.72L1265.41 471.387C1260.15 486.04 1257.01 502.172 1256.49 519.138L1215.81 517.462C1216.49 493.731 1220.79 470.806 1228.39 449.72ZM1257.11 397.395C1258.04 396.216 1258.98 395.058 1259.93 393.914L1287.79 431.61C1278.77 442.478 1271.33 455.444 1265.96 469.883L1228.93 448.209C1235.82 429.563 1245.29 412.383 1257.11 397.395ZM1309.43 355.285L1322.98 404.035C1310.17 409.898 1298.56 418.968 1288.75 430.479L1260.89 392.777C1275.1 376.015 1291.58 363.363 1309.43 355.285ZM1357.06 344.904C1358.37 344.904 1359.68 344.928 1360.99 344.973L1359.67 396.545C1358.8 396.517 1357.93 396.503 1357.06 396.503C1345.56 396.503 1334.51 398.964 1324.22 403.486L1310.67 354.735C1325.39 348.271 1341.02 344.904 1357.06 344.904ZM1410.17 357.936L1394.68 405.76C1384.2 400.388 1372.85 397.187 1360.98 396.607L1362.3 345.025C1378.96 345.789 1395.1 350.196 1410.17 357.936ZM1457 397.395C1457.93 398.574 1458.84 399.766 1459.75 400.973L1430.01 436.297C1420.46 423.549 1408.86 413.296 1395.89 406.389L1411.38 358.565C1428.23 367.456 1443.71 380.54 1457 397.395ZM1489.54 461.386L1451.27 479.247C1446.64 463.661 1439.67 449.519 1430.91 437.51L1460.64 402.183C1473.4 419.58 1483.15 439.657 1489.54 461.386ZM1391.13 644.193C1396.21 641.87 1401.1 639.042 1405.76 635.759L1425.21 681.211C1418.62 685.823 1411.76 689.743 1404.68 692.947L1391.13 644.193ZM1354.44 651.684C1355.31 651.711 1356.18 651.729 1357.06 651.729C1368.55 651.729 1379.6 649.268 1389.89 644.746L1403.45 693.497C1388.72 699.961 1373.09 703.328 1357.06 703.328C1355.74 703.328 1354.43 703.3 1353.12 703.255L1354.44 651.684ZM1319.43 642.468C1329.91 647.843 1341.26 651.041 1353.13 651.622L1351.81 703.203C1335.16 702.439 1319.01 698.032 1303.94 690.292L1319.43 642.468ZM1318.22 641.839L1302.73 689.663C1298.01 687.171 1293.39 684.354 1288.9 681.211L1308.35 635.759C1311.54 638.002 1314.83 640.038 1318.22 641.839ZM1364.5 527.562C1364.71 526.833 1364.86 526.065 1364.93 525.27L1455.66 529.011C1455.15 545.634 1452.08 561.438 1446.92 575.798L1364.5 527.562ZM1365.11 533.805L1363.48 529.992C1363.65 529.695 1363.81 529.387 1363.95 529.066L1446.36 577.305C1441.1 591.45 1433.82 604.154 1424.98 614.804L1365.11 533.805ZM1367.58 539.574L1424.02 615.934C1418.85 621.99 1413.18 627.355 1407.1 631.915L1367.58 539.574ZM1360.3 533.283C1360.73 533.038 1361.14 532.744 1361.53 532.405L1404.82 633.57C1400.25 636.789 1395.46 639.564 1390.47 641.846L1360.3 533.283ZM1357.06 649.236C1356.2 649.236 1355.35 649.223 1354.5 649.195L1357.45 534.151C1358.01 534.12 1358.54 534.009 1359.06 533.84L1389.24 642.396C1379.15 646.827 1368.32 649.236 1357.06 649.236ZM1354.66 533.698C1355.14 533.888 1355.63 534.023 1356.14 534.099L1353.2 649.133C1341.56 648.562 1330.45 645.43 1320.18 640.166L1354.66 533.698ZM1352.58 532.405C1352.85 532.647 1353.15 532.868 1353.45 533.062L1318.97 639.537C1315.64 637.767 1312.41 635.769 1309.29 633.57L1352.58 532.405ZM1348.11 535.883L1307.02 631.915C1299.08 625.969 1291.84 618.658 1285.53 610.23L1348.11 535.883ZM1349.87 528.357C1350.08 528.935 1350.34 529.481 1350.63 529.992L1350.09 531.254L1284.64 609.017C1276.05 597.247 1269.22 583.392 1264.68 568.124L1349.87 528.357ZM1349.61 520.669C1349.4 521.395 1349.26 522.163 1349.18 522.958L1258.46 519.221C1258.96 502.594 1262.03 486.79 1267.19 472.431L1349.61 520.669ZM1351.17 517.375C1350.78 517.921 1350.44 518.519 1350.16 519.162L1267.75 470.927C1273.01 456.782 1280.29 444.078 1289.13 433.428L1351.17 517.375ZM1353.81 514.945C1353.21 515.291 1352.64 515.726 1352.13 516.241L1290.09 432.294C1299.7 421.018 1311.08 412.134 1323.64 406.386L1353.81 514.945ZM1356.66 514.077C1356.1 514.115 1355.57 514.219 1355.05 514.392L1324.87 405.833C1334.96 401.408 1345.79 398.995 1357.06 398.995C1357.91 398.995 1358.76 399.009 1359.61 399.033L1356.66 514.077ZM1359.45 514.534C1358.97 514.34 1358.48 514.209 1357.97 514.133L1360.92 399.099C1372.55 399.669 1383.67 402.801 1393.93 408.066L1359.45 514.534ZM1362.37 516.663C1361.86 516.072 1361.28 515.571 1360.66 515.166L1395.15 408.695C1407.86 415.463 1419.22 425.512 1428.58 437.998L1362.37 516.663ZM1363.27 517.873L1429.47 439.215C1438.06 450.981 1444.89 464.836 1449.43 480.108L1364.24 519.878C1363.98 519.159 1363.65 518.485 1363.27 517.873ZM1258.41 520.88L1349.14 524.621C1349.17 525.371 1349.26 526.097 1349.41 526.795L1264.22 566.565C1260.44 553.305 1258.37 539.011 1258.37 524.116C1258.37 523.034 1258.38 521.955 1258.41 520.88ZM1455.7 527.348L1364.97 523.611C1364.94 522.861 1364.85 522.132 1364.69 521.433L1449.89 481.664C1453.67 494.927 1455.74 509.217 1455.74 524.116C1455.74 525.194 1455.73 526.276 1455.7 527.348ZM1498.4 524.116C1498.4 525.782 1498.38 527.445 1498.34 529.107L1457.67 527.431C1457.69 526.328 1457.7 525.222 1457.7 524.116C1457.7 508.917 1455.59 494.333 1451.73 480.803L1489.99 462.945C1495.51 482.293 1498.4 502.923 1498.4 524.116ZM1527.82 516.145C1521.64 516.145 1516.58 522.17 1516.08 529.837L1502.27 529.27C1502.31 527.555 1502.33 525.837 1502.33 524.116C1502.33 502.325 1499.36 481.117 1493.68 461.224L1505.21 455.838C1507.02 461.137 1511.19 464.846 1516.03 464.846C1522.55 464.846 1527.82 458.154 1527.82 449.9C1527.82 441.645 1522.55 434.949 1516.03 434.949C1509.52 434.949 1504.24 441.645 1504.24 449.9C1504.24 451.424 1504.42 452.893 1504.76 454.279L1493.23 459.661C1486.65 437.313 1476.64 416.666 1463.51 398.778L1472.54 388.051C1474.65 390.616 1477.52 392.192 1480.68 392.192C1487.19 392.192 1492.46 385.5 1492.46 377.246C1492.46 368.991 1487.19 362.295 1480.68 362.295C1474.16 362.295 1468.89 368.991 1468.89 377.246C1468.89 380.899 1469.92 384.245 1471.64 386.841L1462.61 397.568C1461.68 396.32 1460.74 395.089 1459.78 393.869C1446.11 376.544 1430.2 363.094 1412.88 353.954L1417.84 338.627C1418.97 339.079 1420.17 339.325 1421.41 339.325C1427.92 339.325 1433.2 332.633 1433.2 324.378C1433.2 316.123 1427.92 309.428 1421.41 309.428C1414.9 309.428 1409.62 316.123 1409.62 324.378C1409.62 330.469 1412.5 335.706 1416.62 338.032L1411.67 353.325C1396.16 345.36 1379.56 340.829 1362.43 340.044L1362.97 319.096L1363.34 319.106C1369.85 319.106 1375.13 312.414 1375.13 304.159C1375.13 295.901 1369.85 289.209 1363.34 289.209C1356.83 289.209 1351.55 295.901 1351.55 304.159C1351.55 311.688 1355.95 317.917 1361.66 318.951L1361.12 339.995C1359.77 339.947 1358.41 339.919 1357.06 339.919C1340.57 339.919 1324.5 343.383 1309.36 350.034L1304.61 332.933C1308.89 330.697 1311.91 325.349 1311.91 319.106C1311.91 310.852 1306.63 304.159 1300.12 304.159C1293.61 304.159 1288.33 310.852 1288.33 319.106C1288.33 327.365 1293.61 334.057 1300.12 334.057C1301.25 334.057 1302.34 333.853 1303.37 333.476L1308.12 350.584C1289.77 358.887 1272.81 371.901 1258.2 389.14L1249.58 377.484C1251.51 374.822 1252.69 371.272 1252.69 367.377C1252.69 359.118 1247.41 352.426 1240.9 352.426C1234.39 352.426 1229.11 359.118 1229.11 367.377C1229.11 375.631 1234.39 382.323 1240.9 382.323C1243.87 382.323 1246.57 380.934 1248.65 378.642L1257.25 390.278C1256.27 391.456 1255.29 392.652 1254.33 393.869C1242.18 409.283 1232.44 426.95 1225.37 446.125L1214.42 439.716C1214.82 438.216 1215.03 436.615 1215.03 434.949C1215.03 426.694 1209.76 420.002 1203.24 420.002C1196.73 420.002 1191.45 426.694 1191.45 434.949C1191.45 443.207 1196.73 449.9 1203.24 449.9C1207.98 449.9 1212.06 446.36 1213.93 441.258L1224.82 447.628C1217 469.313 1212.57 492.891 1211.88 517.303L1197.83 516.722C1197.65 508.657 1192.45 502.19 1186.05 502.19C1179.53 502.19 1174.26 508.882 1174.26 517.137C1174.26 525.395 1179.53 532.087 1186.05 532.087C1192.22 532.087 1197.29 526.055 1197.79 518.381L1211.84 518.962C1211.8 520.676 1211.78 522.394 1211.78 524.116C1211.78 545.904 1214.75 567.114 1220.43 587.008L1208.9 592.394C1207.09 587.091 1202.93 583.382 1198.08 583.382C1191.57 583.382 1186.29 590.074 1186.29 598.329C1186.29 606.587 1191.57 613.279 1198.08 613.279C1204.59 613.279 1209.87 606.587 1209.87 598.329C1209.87 596.808 1209.69 595.335 1209.35 593.953L1220.88 588.567C1227.45 610.915 1237.48 631.566 1250.6 649.454L1241.57 660.177C1239.46 657.616 1236.59 656.036 1233.44 656.036C1226.93 656.036 1221.64 662.732 1221.64 670.986C1221.64 679.241 1226.93 685.933 1233.44 685.933C1239.95 685.933 1245.22 679.241 1245.22 670.986C1245.22 667.333 1244.19 663.986 1242.47 661.387L1251.5 650.664C1252.43 651.908 1253.37 653.143 1254.33 654.359C1263.54 666.029 1273.76 675.94 1284.75 683.96L1213.66 850.094H1200.9V854.844H1194.65V864.274H1519.46V854.844H1513.21V850.094H1500.45L1429.37 683.96C1438.83 677.046 1447.74 668.729 1455.91 659.092L1467.43 674.678C1464.96 677.419 1463.39 681.443 1463.39 685.933C1463.39 694.191 1468.67 700.884 1475.18 700.884C1481.69 700.884 1486.97 694.191 1486.97 685.933C1486.97 677.679 1481.69 670.986 1475.18 670.986C1472.69 670.986 1470.37 671.971 1468.47 673.651L1456.86 657.951C1457.84 656.772 1458.82 655.576 1459.78 654.359C1471.93 638.946 1481.67 621.282 1488.75 602.111L1501.57 609.619C1501.34 610.79 1501.22 612.014 1501.22 613.279C1501.22 621.534 1506.5 628.226 1513.01 628.226C1519.52 628.226 1524.8 621.534 1524.8 613.279C1524.8 605.021 1519.52 598.329 1513.01 598.329C1507.95 598.329 1503.65 602.359 1501.97 608.018L1489.3 600.6C1497.11 578.916 1501.53 555.337 1502.23 530.929L1516.04 531.5C1516.21 539.568 1521.42 546.042 1527.82 546.042C1534.33 546.042 1539.61 539.35 1539.61 531.092C1539.61 522.837 1534.33 516.145 1527.82 516.145Z" fill="#1E619E"/>
<path d="M1098.09 869.263H1183.08V726.24H1098.09V869.263Z" fill="#1E619E"/>
<path d="M1097.66 1023.06H1226.13V498.056H1097.66V1023.06Z" fill="#023F76"/>
<path d="M1235.72 506.487H1088.07V501.167H1235.72V506.487Z" fill="#023F76"/>
<path d="M1231.73 580.217H1092.06V574.914H1231.73V580.217Z" fill="#023F76"/>
<path d="M1231.73 651.635H1092.06V646.333H1231.73V651.635Z" fill="#023F76"/>
<path d="M1231.73 723.055H1092.06V717.753H1231.73V723.055Z" fill="#023F76"/>
<path d="M1231.73 794.477H1092.06V789.174H1231.73V794.477Z" fill="#023F76"/>
<path d="M1231.73 865.896H1092.06V860.593H1231.73V865.896Z" fill="#023F76"/>
<path d="M1231.73 937.315H1092.06V932.013H1231.73V937.315Z" fill="#023F76"/>
<path d="M1240.61 501.168H1083.19V486.663H1240.61V501.168Z" fill="#023F76"/>
<path d="M1109.23 565.674H1122.57V523.732H1109.23V565.674Z" fill="#023F76"/>
<path d="M1139.08 565.674H1152.43V523.732H1139.08V565.674Z" fill="#023F76"/>
<path d="M1168.94 565.674H1182.28V523.732H1168.94V565.674Z" fill="#023F76"/>
<path d="M1198.79 565.674H1212.14V523.732H1198.79V565.674Z" fill="#023F76"/>
<path d="M1109.23 634.245H1122.57V592.303H1109.23V634.245Z" fill="#023F76"/>
<path d="M1152.43 634.245H1139.08V592.304H1152.43V634.245ZM1142.42 595.775V630.778H1149.09V595.775H1142.42Z" fill="#023F76"/>
<path d="M1168.94 634.245H1182.28V592.303H1168.94V634.245Z" fill="#023F76"/>
<path d="M1198.79 634.245H1212.14V592.303H1198.79V634.245Z" fill="#023F76"/>
<path d="M1109.23 705.665H1122.57V663.723H1109.23V705.665Z" fill="#023F76"/>
<path d="M1139.08 705.665H1152.43V663.723H1139.08V705.665Z" fill="#023F76"/>
<path d="M1168.94 705.665H1182.28V663.723H1168.94V705.665Z" fill="#023F76"/>
<path d="M1212.14 705.665H1198.79V663.724H1212.14V669.607H1208.8V704.61H1212.14V705.665Z" fill="#023F76"/>
<path d="M1109.23 777.085H1122.57V735.144H1109.23V777.085Z" fill="#023F76"/>
<path d="M1152.43 777.085H1149.09V743.441H1142.42V777.085H1139.08V735.144H1152.43V777.085Z" fill="#023F76"/>
<path d="M1175.61 777.085H1168.94V735.144H1182.28V743.441H1175.61V777.085Z" fill="#023F76"/>
<path d="M1198.79 777.085H1212.14V735.144H1198.79V777.085Z" fill="#023F76"/>
<path d="M1122.57 848.505H1109.23V806.564H1122.57V848.505ZM1109.23 810.512V845.511H1115.9V810.512H1109.23Z" fill="#023F76"/>
<path d="M1139.08 848.505H1152.43V806.565H1139.08V848.505Z" fill="#023F76"/>
<path d="M1168.94 848.505H1182.28V806.565H1168.94V848.505Z" fill="#023F76"/>
<path d="M1198.79 848.505H1212.14V806.565H1198.79V848.505Z" fill="#023F76"/>
<path d="M1109.23 919.925H1122.57V877.985H1109.23V919.925Z" fill="#023F76"/>
<path d="M1139.08 919.925H1152.43V877.985H1139.08V919.925Z" fill="#023F76"/>
<path d="M1175.61 919.925H1168.94V877.984H1182.28V885.312H1175.61V919.925Z" fill="#023F76"/>
<path d="M1212.14 919.925H1198.79V877.984H1212.14V919.925Z" fill="#023F76"/>
<path d="M1122.58 991.345H1109.23V949.404H1122.58V991.345Z" fill="#023F76"/>
<path d="M1139.08 991.345H1152.43V949.405H1139.08V991.345Z" fill="#023F76"/>
<path d="M1182.28 991.345H1168.94V949.404H1182.28V991.345Z" fill="#023F76"/>
<path d="M1198.79 991.345H1212.14V949.405H1198.79V991.345Z" fill="#023F76"/>
<path d="M1149.47 493.915H1105.77V466.648H1149.47V493.915Z" fill="#023F76"/>
<path d="M1152.43 470.53H1102.81V465.87H1152.43V470.53Z" fill="#023F76"/>
<path d="M913.546 1023.06H742.422V524.234L913.546 471.162V1023.06Z" fill="#023F76"/>
<path d="M749.939 1023.06H734.903V515.454H749.939V1023.06Z" fill="#023F76"/>
<path d="M792.72 1023.06H777.685V501.15H792.72V1023.06Z" fill="#023F76"/>
<path d="M835.502 1023.06H820.466V486.296H835.502V1023.06Z" fill="#023F76"/>
<path d="M878.28 1023.06H863.245V474.187H878.28V1023.06Z" fill="#023F76"/>
<path d="M921.062 1023.06H906.026V461.314H921.062V1023.06Z" fill="#023F76"/>
<path d="M773.791 596.601H753.832V558.051H758.824V579.846H768.802V558.051H773.791V596.601Z" fill="#023F76"/>
<path d="M816.57 596.601H796.613V558.051H801.603V579.846H811.581V558.051H816.57V596.601Z" fill="#023F76"/>
<path d="M839.395 596.601H859.354V558.051H839.395V596.601Z" fill="#023F76"/>
<path d="M902.133 596.601H882.176V558.051H887.166V579.846H897.144V558.051H902.133V596.601Z" fill="#023F76"/>
<path d="M753.832 663.728H773.792V625.178H753.832V663.728Z" fill="#023F76"/>
<path d="M796.613 663.728H816.57V625.178H796.613V663.728Z" fill="#023F76"/>
<path d="M859.354 663.728H839.395V625.178H844.384V641.221H854.362V625.178H859.354V663.728Z" fill="#023F76"/>
<path d="M902.133 663.728H882.176V625.178H887.166V641.221H897.144V625.178H902.133V663.728Z" fill="#023F76"/>
<path d="M773.791 730.855H753.832V692.305H758.824V702.599H768.802V692.305H773.791V730.855Z" fill="#023F76"/>
<path d="M816.57 730.855H796.613V692.305H801.603V702.599H811.581V692.305H816.57V730.855Z" fill="#023F76"/>
<path d="M859.354 730.855H839.395V692.305H844.384V702.599H854.362V692.305H859.354V730.855Z" fill="#023F76"/>
<path d="M882.176 730.855H902.133V692.305H882.176V730.855Z" fill="#023F76"/>
<path d="M773.791 797.982H768.802V789.755H758.824V797.982H753.832V759.429H758.824V763.978H768.802V759.429H773.791V797.982Z" fill="#023F76"/>
<path d="M796.613 797.982H816.57V759.428H796.613V797.982Z" fill="#023F76"/>
<path d="M859.354 797.982H854.362V789.755H844.384V797.982H839.395V759.429H844.384V763.978H854.362V759.429H859.354V797.982Z" fill="#023F76"/>
<path d="M902.133 797.982H897.144V789.755H887.166V797.982H882.176V759.429H887.166V763.978H897.144V759.429H902.133V797.982Z" fill="#023F76"/>
<path d="M773.791 865.101H768.802V851.128H758.824V865.101H753.832V826.554H773.791V865.101Z" fill="#023F76"/>
<path d="M816.57 865.101H811.581V851.128H801.603V865.101H796.613V826.554H816.57V865.101Z" fill="#023F76"/>
<path d="M839.395 865.101H859.354V826.554H839.395V865.101Z" fill="#023F76"/>
<path d="M902.133 865.101H897.144V851.128H887.166V865.101H882.176V826.554H902.133V865.101Z" fill="#023F76"/>
<path d="M773.791 932.228H753.835V893.681H773.791V932.228Z" fill="#023F76"/>
<path d="M816.57 932.228H796.613V893.681H816.57V932.228Z" fill="#023F76"/>
<path d="M839.395 932.232H859.354V893.682H839.395V932.232Z" fill="#023F76"/>
<path d="M882.176 932.232H902.133V893.682H882.176V932.232Z" fill="#023F76"/>
<path d="M753.832 999.355H773.792V960.805H753.832V999.355Z" fill="#023F76"/>
<path d="M816.57 999.355H796.613V960.805H816.57V999.355Z" fill="#023F76"/>
<path d="M839.395 999.355H859.354V960.805H839.395V999.355Z" fill="#023F76"/>
<path d="M902.133 999.355H882.176V960.805H902.133V999.355Z" fill="#023F76"/>
<path d="M254.269 548.13V553.309H250.201V568.069H321.802V1023.06H204.303V591.81V568.069V553.309H200.039V548.13H254.269Z" fill="#023F76"/>
<path d="M555.083 1023.06H454.441V754.799H555.083V1023.06Z" fill="#023F76"/>
<path d="M15.7809 1023.06H97.5919V693.303H15.7809V1023.06Z" fill="#023F76"/>
<path d="M170.541 1023.06H81.3871V762.013H170.541V1023.06Z" fill="#023F76"/>
<path d="M45.2143 719.534H81.3872V680.071H45.2143V719.534Z" fill="#023F76"/>
<path d="M182.542 767.365H87.5051V757.713H182.542V767.365Z" fill="#023F76"/>
<path d="M260.921 1023.06H160.966V873.981H260.921V1023.06Z" fill="#023F76"/>
<path d="M45.2143 1023.06H-80.7799V923.288H45.2143V1023.06Z" fill="#023F76"/>
<path d="M485.071 1023.06H288.811V980.079H485.071V1023.06Z" fill="#023F76"/>
<path d="M833.032 1023.06H636.775V980.079H833.032V1023.06Z" fill="#023F76"/>
<path d="M477.429 853.891H402.832L371.288 1001.57H477.429V853.891Z" fill="#023F76"/>
<path d="M513.984 802.838H511.906V639.009H513.984V802.838Z" fill="#023F76"/>
<path d="M525.069 791.116H522.299V694.448H525.069V791.116Z" fill="#023F76"/>
<path d="M545.189 759.427H507.449V711.575H545.189V759.427Z" fill="#023F76"/>
<path d="M551.062 712.146H501.077V707.859H551.062V712.146Z" fill="#023F76"/>
<path d="M658.724 1023.06H536.779V884.697H658.724V1023.06Z" fill="#023F76"/>
<path d="M713.749 732.376H635.406V999.355H713.749V732.376Z" fill="#023F76"/>
<path d="M1066.56 1023.06H941.387V782.567H1066.56V1023.06Z" fill="#023F76"/>
<path d="M1044.85 1023.06H902.133V934.446H1044.85V1023.06Z" fill="#023F76"/>
<path d="M1059.63 1023.06H1152.43V991.345H1059.63V1023.06Z" fill="#023F76"/>
<path d="M1353.45 934.446H1202.56V1023.06H1353.45V934.446Z" fill="#023F76"/>
<path d="M1262.68 1023.06H1450.43V702.433H1262.68V1023.06Z" fill="#023F76"/>
<path d="M1257.83 702.433H1461.39V690.133H1257.83V702.433Z" fill="#023F76"/>
<path d="M1359.61 721.759H1442.12V656.755H1359.61V721.759Z" fill="#023F76"/>
<path d="M1318.8 696.287H1332.65V656.755H1318.8V696.287Z" fill="#023F76"/>
<path d="M1289.7 696.287H1304.94V656.755H1289.7V696.287Z" fill="#023F76"/>
<path d="M24.2217 717.854H30.4155V710.003H24.2217V717.854Z" fill="#6D9DC9"/>
<path d="M36.6647 717.854H42.8564V710.003H36.6647V717.854Z" fill="#6D9DC9"/>
<path d="M24.2217 736.3H30.4155V728.45H24.2217V736.3Z" fill="#6D9DC9"/>
<path d="M36.6647 736.3H42.8564V728.45H36.6647V736.3Z" fill="#6D9DC9"/>
<path d="M24.2217 754.132H30.4155V746.283H24.2217V754.132Z" fill="#6D9DC9"/>
<path d="M50.4951 717.854H56.6869V710.003H50.4951V717.854Z" fill="#6D9DC9"/>
<path d="M477.429 503.828H481.655V474.186H477.429V503.828Z" fill="white"/>
<path d="M491.985 503.828H496.211V474.186H491.985V503.828Z" fill="white"/>
<path d="M506.541 503.828H510.764V474.186H506.541V503.828Z" fill="white"/>
<path d="M521.097 503.828H525.32V474.186H521.097V503.828Z" fill="white"/>
<path d="M535.653 503.828H539.875V474.186H535.653V503.828Z" fill="white"/>
<path d="M550.208 503.828H554.431V474.186H550.208V503.828Z" fill="white"/>
<path d="M564.761 503.828H568.987V474.186H564.761V503.828Z" fill="white"/>
<path d="M579.317 503.828H583.543V474.186H579.317V503.828Z" fill="white"/>
<path d="M593.873 503.828H598.096V474.186H593.873V503.828Z" fill="white"/>
<path d="M608.429 503.828H612.652V474.186H608.429V503.828Z" fill="white"/>
<path d="M625.098 503.828H627.208V474.186H625.098V503.828Z" fill="white"/>
<path d="M622.985 503.828H625.098V474.186H622.985V503.828Z" fill="white"/>
<path d="M477.429 545.095H481.655V515.454H477.429V545.095Z" fill="white"/>
<path d="M491.985 545.095H496.211V515.454H491.985V545.095Z" fill="white"/>
<path d="M506.541 545.095H510.764V515.454H506.541V545.095Z" fill="white"/>
<path d="M521.097 545.095H525.32V515.454H521.097V545.095Z" fill="white"/>
<path d="M535.653 545.095H539.875V515.454H535.653V545.095Z" fill="white"/>
<path d="M550.208 545.095H554.431V515.454H550.208V545.095Z" fill="white"/>
<path d="M564.761 545.095H568.987V515.454H564.761V545.095Z" fill="white"/>
<path d="M579.317 545.095H583.543V515.454H579.317V545.095Z" fill="white"/>
<path d="M593.873 545.095H598.096V515.454H593.873V545.095Z" fill="white"/>
<path d="M608.429 545.095H612.652V515.454H608.429V545.095Z" fill="white"/>
<path d="M622.985 545.095H627.208V515.454H622.985V545.095Z" fill="white"/>
<path d="M477.429 586.362H481.655V556.721H477.429V586.362Z" fill="white"/>
<path d="M491.985 586.362H496.211V556.721H491.985V586.362Z" fill="white"/>
<path d="M506.541 586.362H510.764V556.721H506.541V586.362Z" fill="white"/>
<path d="M521.097 586.362H525.32V556.721H521.097V586.362Z" fill="white"/>
<path d="M535.653 586.362H539.875V556.721H535.653V586.362Z" fill="white"/>
<path d="M550.208 586.362H554.431V556.721H550.208V586.362Z" fill="white"/>
<path d="M564.761 586.362H568.987V556.721H564.761V586.362Z" fill="white"/>
<path d="M579.317 586.362H583.543V556.721H579.317V586.362Z" fill="white"/>
<path d="M593.873 586.362H598.096V556.721H593.873V586.362Z" fill="white"/>
<path d="M608.429 586.362H612.652V556.721H608.429V586.362Z" fill="white"/>
<path d="M622.985 586.362H627.208V556.721H622.985V586.362Z" fill="white"/>
<path d="M521.097 627.63H525.32V597.988H521.097V627.63Z" fill="white"/>
<path d="M535.653 627.63H539.875V597.988H535.653V627.63Z" fill="white"/>
<path d="M550.208 627.63H554.431V597.988H550.208V627.63Z" fill="white"/>
<path d="M564.761 627.63H568.987V597.988H564.761V627.63Z" fill="white"/>
<path d="M579.317 627.63H583.543V597.988H579.317V627.63Z" fill="white"/>
<path d="M593.873 627.63H598.096V597.988H593.873V627.63Z" fill="white"/>
<path d="M608.429 627.63H612.652V597.988H608.429V627.63Z" fill="white"/>
<path d="M622.985 627.63H627.208V597.988H622.985V627.63Z" fill="white"/>
<path d="M535.653 671.184H539.875V641.543H535.653V671.184Z" fill="white"/>
<path d="M550.208 671.184H554.431V641.543H550.208V671.184Z" fill="white"/>
<path d="M564.761 671.184H568.987V641.543H564.761V671.184Z" fill="white"/>
<path d="M579.317 671.184H583.543V641.543H579.317V671.184Z" fill="white"/>
<path d="M593.873 671.184H598.096V641.543H593.873V671.184Z" fill="white"/>
<path d="M608.429 671.184H612.652V641.543H608.429V671.184Z" fill="white"/>
<path d="M622.985 671.184H627.208V641.543H622.985V671.184Z" fill="white"/>
<path d="M758.824 558.052H768.802V547.757H758.824V558.052Z" fill="white"/>
<path d="M758.824 579.847H768.802V558.052H758.824V579.847Z" fill="white"/>
<path d="M758.824 625.179H768.802V609.136H758.824V625.179Z" fill="white"/>
<path d="M758.824 641.222H768.802V625.179H758.824V641.222Z" fill="white"/>
<path d="M758.824 692.304H768.802V670.513H758.824V692.304Z" fill="white"/>
<path d="M758.824 702.599H768.802V692.304H758.824V702.599Z" fill="white"/>
<path d="M758.824 759.427H768.802V731.884H758.824V759.427Z" fill="white"/>
<path d="M758.824 763.977H768.802V759.427H758.824V763.977Z" fill="white"/>
<path d="M758.824 821.84H768.802V797.981H758.824V821.84Z" fill="white"/>
<path d="M758.824 797.982H768.802V789.754H758.824V797.982Z" fill="white"/>
<path d="M758.824 883.218H768.802V865.102H758.824V883.218Z" fill="white"/>
<path d="M758.824 865.101H768.802V851.128H758.824V865.101Z" fill="white"/>
<path d="M801.603 558.052H811.581V547.757H801.603V558.052Z" fill="white"/>
<path d="M801.603 579.847H811.581V558.052H801.603V579.847Z" fill="white"/>
<path d="M801.603 625.179H811.581V609.136H801.603V625.179Z" fill="white"/>
<path d="M801.603 641.222H811.581V625.179H801.603V641.222Z" fill="white"/>
<path d="M801.603 692.304H811.581V670.513H801.603V692.304Z" fill="white"/>
<path d="M801.603 702.599H811.581V692.304H801.603V702.599Z" fill="white"/>
<path d="M801.603 759.427H811.581V731.884H801.603V759.427Z" fill="white"/>
<path d="M801.603 763.977H811.581V759.427H801.603V763.977Z" fill="white"/>
<path d="M801.603 821.84H811.581V797.981H801.603V821.84Z" fill="white"/>
<path d="M801.603 797.982H811.581V789.754H801.603V797.982Z" fill="white"/>
<path d="M801.603 883.218H811.581V865.102H801.603V883.218Z" fill="white"/>
<path d="M801.603 865.101H811.581V851.128H801.603V865.101Z" fill="white"/>
<path d="M844.384 558.052H854.363V547.757H844.384V558.052Z" fill="white"/>
<path d="M844.384 579.847H854.363V558.052H844.384V579.847Z" fill="white"/>
<path d="M844.384 625.179H854.363V609.136H844.384V625.179Z" fill="white"/>
<path d="M844.384 641.222H854.363V625.179H844.384V641.222Z" fill="white"/>
<path d="M844.384 692.304H854.363V670.513H844.384V692.304Z" fill="white"/>
<path d="M844.384 702.599H854.363V692.304H844.384V702.599Z" fill="white"/>
<path d="M844.384 759.427H854.363V731.884H844.384V759.427Z" fill="white"/>
<path d="M844.384 763.977H854.363V759.427H844.384V763.977Z" fill="white"/>
<path d="M844.384 821.84H854.363V797.981H844.384V821.84Z" fill="white"/>
<path d="M844.384 797.982H854.363V789.754H844.384V797.982Z" fill="white"/>
<path d="M844.384 883.218H854.363V865.102H844.384V883.218Z" fill="white"/>
<path d="M844.384 865.101H854.363V851.128H844.384V865.101Z" fill="white"/>
<path d="M887.166 558.052H897.143V547.757H887.166V558.052Z" fill="white"/>
<path d="M887.166 579.847H897.143V558.052H887.166V579.847Z" fill="white"/>
<path d="M887.166 625.179H897.143V609.136H887.166V625.179Z" fill="white"/>
<path d="M887.166 641.222H897.143V625.179H887.166V641.222Z" fill="white"/>
<path d="M887.166 692.304H897.143V670.513H887.166V692.304Z" fill="white"/>
<path d="M887.166 702.599H897.143V692.304H887.166V702.599Z" fill="white"/>
<path d="M887.166 759.427H897.143V731.884H887.166V759.427Z" fill="white"/>
<path d="M887.166 763.977H897.143V759.427H887.166V763.977Z" fill="white"/>
<path d="M887.166 821.84H897.143V797.981H887.166V821.84Z" fill="white"/>
<path d="M887.166 797.982H897.143V789.754H887.166V797.982Z" fill="white"/>
<path d="M887.166 883.218H897.143V865.102H887.166V883.218Z" fill="white"/>
<path d="M887.166 865.101H897.143V851.128H887.166V865.101Z" fill="white"/>
<path d="M598.096 128.36H606.398V100.278H598.096V128.36Z" fill="white"/>
<path d="M618.584 128.36H626.886V100.278H618.584V128.36Z" fill="white"/>
<path d="M639.067 128.36H647.369V100.278H639.067V128.36Z" fill="white"/>
<path d="M659.553 128.36H667.854V100.278H659.553V128.36Z" fill="white"/>
<path d="M598.096 175.13H606.398V147.048H598.096V175.13Z" fill="white"/>
<path d="M618.584 175.13H626.886V147.048H618.584V175.13Z" fill="white"/>
<path d="M639.067 175.13H647.369V147.048H639.067V175.13Z" fill="white"/>
<path d="M659.553 175.13H667.854V147.048H659.553V175.13Z" fill="white"/>
<path d="M598.096 221.9H606.398V193.816H598.096V221.9Z" fill="white"/>
<path d="M618.584 221.9H626.886V193.816H618.584V221.9Z" fill="white"/>
<path d="M682.789 128.36H691.091V100.278H682.789V128.36Z" fill="white"/>
<path d="M45.2143 410.517H50.4944V392.633H45.2143V410.517Z" fill="white"/>
<path d="M45.2143 392.632H50.4944V384.777H45.2143V392.632Z" fill="white"/>
<path d="M63.8462 410.517H69.1242V392.633H63.8462V410.517Z" fill="white"/>
<path d="M63.8462 392.632H69.1242V384.777H63.8462V392.632Z" fill="white"/>
<path d="M85.6373 410.517H90.9153V392.633H85.6373V410.517Z" fill="white"/>
<path d="M85.6373 392.632H90.9153V384.777H85.6373V392.632Z" fill="white"/>
<path d="M104.267 410.517H109.548V392.633H104.267V410.517Z" fill="white"/>
<path d="M104.267 392.632H109.548V384.777H104.267V392.632Z" fill="white"/>
<path d="M3.82605 410.517H9.10404V392.633H3.82605V410.517Z" fill="white"/>
<path d="M3.82605 392.632H9.10404V384.777H3.82605V392.632Z" fill="white"/>
<path d="M22.4551 410.517H27.7352V392.633H22.4551V410.517Z" fill="white"/>
<path d="M22.4551 392.632H27.7352V384.777H22.4551V392.632Z" fill="white"/>
<path d="M45.2143 455.22H50.4944V429.478H45.2143V455.22Z" fill="white"/>
<path d="M63.8462 455.22H69.1242V429.478H63.8462V455.22Z" fill="white"/>
<path d="M85.6373 455.22H90.9153V429.478H85.6373V455.22Z" fill="white"/>
<path d="M104.267 455.22H109.548V429.478H104.267V455.22Z" fill="white"/>
<path d="M3.82605 455.22H9.10404V429.478H3.82605V455.22Z" fill="white"/>
<path d="M22.4551 455.22H27.7352V429.478H22.4551V455.22Z" fill="white"/>
<path d="M45.2143 499.919H50.4944V474.177H45.2143V499.919Z" fill="white"/>
<path d="M63.8462 499.919H69.1242V474.177H63.8462V499.919Z" fill="white"/>
<path d="M85.6373 499.919H90.9153V474.177H85.6373V499.919Z" fill="white"/>
<path d="M104.267 499.919H109.548V474.177H104.267V499.919Z" fill="white"/>
<path d="M3.82605 499.919H9.10404V474.177H3.82605V499.919Z" fill="white"/>
<path d="M22.4551 499.919H27.7352V474.177H22.4551V499.919Z" fill="white"/>
<path d="M1030.5 621.984H1038.68V582.062H1030.5V621.984Z" fill="white"/>
<path d="M1055.54 621.984H1063.72V582.062H1055.54V621.984Z" fill="white"/>
<path d="M1079.09 621.984H1087.28V582.062H1079.09V621.984Z" fill="white"/>
<path d="M1109.23 558.735H1115.9V523.732H1109.23V558.735Z" fill="white"/>
<path d="M1142.42 558.735H1149.09V523.732H1142.42V558.735Z" fill="white"/>
<path d="M1175.61 558.735H1182.28V523.732H1175.61V558.735Z" fill="white"/>
<path d="M1212.14 558.735H1215.48V523.732H1212.14V558.735Z" fill="white"/>
<path d="M1208.8 558.735H1212.14V523.732H1208.8V558.735Z" fill="white"/>
<path d="M1109.23 630.777H1115.9V595.774H1109.23V630.777Z" fill="white"/>
<path d="M1142.42 630.777H1149.09V595.774H1142.42V630.777Z" fill="white"/>
<path d="M1175.61 630.777H1182.28V595.774H1175.61V630.777Z" fill="white"/>
<path d="M1212.14 630.777H1215.48V595.774H1212.14V630.777Z" fill="white"/>
<path d="M1208.8 630.777H1212.14V595.774H1208.8V630.777Z" fill="white"/>
<path d="M1109.23 704.611H1115.9V669.608H1109.23V704.611Z" fill="white"/>
<path d="M1142.42 704.611H1149.09V669.608H1142.42V704.611Z" fill="white"/>
<path d="M1175.61 704.611H1182.28V669.608H1175.61V704.611Z" fill="white"/>
<path d="M1212.14 704.611H1215.48V669.608H1212.14V704.611Z" fill="white"/>
<path d="M1208.8 704.611H1212.14V669.608H1208.8V704.611Z" fill="white"/>
<path d="M1109.23 778.444H1115.9V777.085H1109.23V778.444Z" fill="white"/>
<path d="M1109.23 777.085H1115.9V743.44H1109.23V777.085Z" fill="white"/>
<path d="M1142.42 778.444H1149.09V777.085H1142.42V778.444Z" fill="white"/>
<path d="M1142.42 777.085H1149.09V743.44H1142.42V777.085Z" fill="white"/>
<path d="M1182.28 778.444H1175.61V777.085H1182.28V743.441V778.444Z" fill="white"/>
<path d="M1175.61 777.085H1182.28V743.44H1175.61V777.085Z" fill="white"/>
<path d="M1215.48 778.444H1208.8V777.085H1212.14V743.441H1215.48V778.444Z" fill="white"/>
<path d="M1208.8 777.085H1212.14V743.44H1208.8V777.085Z" fill="white"/>
<path d="M1109.23 845.511H1115.9V810.511H1109.23V845.511Z" fill="white"/>
<path d="M1142.42 845.511H1149.09V810.511H1142.42V845.511Z" fill="white"/>
<path d="M1175.61 845.511H1182.28V810.511H1175.61V845.511Z" fill="white"/>
<path d="M1109.23 920.315H1115.9V919.925H1109.23V920.315Z" fill="white"/>
<path d="M1109.23 919.925H1115.9V885.312H1109.23V919.925Z" fill="white"/>
<path d="M1142.42 920.315H1149.09V919.925H1142.42V920.315Z" fill="white"/>
<path d="M1142.42 919.925H1149.09V885.312H1142.42V919.925Z" fill="white"/>
<path d="M1182.28 920.315H1175.61V919.925H1182.28V885.312V920.315Z" fill="white"/>
<path d="M1175.61 919.925H1182.28V885.312H1175.61V919.925Z" fill="white"/>
<path d="M1212.14 845.511H1215.48V810.511H1212.14V845.511Z" fill="white"/>
<path d="M1208.8 845.511H1212.14V810.511H1208.8V845.511Z" fill="white"/>
</g>
</svg>
