<svg width="19" height="25" viewBox="0 0 19 25" fill="none" xmlns="http://www.w3.org/2000/svg">
<path d="M18.6667 24.5H16.3333V22.1667C16.3333 21.2384 15.9646 20.3482 15.3082 19.6918C14.6518 19.0354 13.7616 18.6667 12.8333 18.6667H5.83333C4.90508 18.6667 4.01484 19.0354 3.35846 19.6918C2.70208 20.3482 2.33333 21.2384 2.33333 22.1667V24.5H0V22.1667C0 20.6196 0.614581 19.1358 1.70854 18.0419C2.80251 16.9479 4.28624 16.3333 5.83333 16.3333H12.8333C14.3804 16.3333 15.8642 16.9479 16.9581 18.0419C18.0521 19.1358 18.6667 20.6196 18.6667 22.1667V24.5ZM9.33333 14C8.41408 14 7.50383 13.8189 6.65455 13.4672C5.80527 13.1154 5.0336 12.5998 4.38358 11.9497C3.73357 11.2997 3.21796 10.5281 2.86618 9.67878C2.51439 8.8295 2.33333 7.91925 2.33333 7C2.33333 6.08075 2.51439 5.1705 2.86618 4.32122C3.21796 3.47194 3.73357 2.70026 4.38358 2.05025C5.0336 1.40024 5.80527 0.884626 6.65455 0.532843C7.50383 0.18106 8.41408 -1.36979e-08 9.33333 0C11.1898 2.76642e-08 12.9703 0.737498 14.2831 2.05025C15.5958 3.36301 16.3333 5.14349 16.3333 7C16.3333 8.85652 15.5958 10.637 14.2831 11.9497C12.9703 13.2625 11.1898 14 9.33333 14ZM9.33333 11.6667C10.571 11.6667 11.758 11.175 12.6332 10.2998C13.5083 9.42466 14 8.23768 14 7C14 5.76232 13.5083 4.57534 12.6332 3.70017C11.758 2.825 10.571 2.33333 9.33333 2.33333C8.09566 2.33333 6.90867 2.825 6.0335 3.70017C5.15833 4.57534 4.66667 5.76232 4.66667 7C4.66667 8.23768 5.15833 9.42466 6.0335 10.2998C6.90867 11.175 8.09566 11.6667 9.33333 11.6667Z" fill="#E7AC72"/>
</svg>
