<svg width="200" height="35" viewBox="0 0 200 35" fill = "none" xmlns="http://www.w3.org/2000/svg">
<path d="M26.424 3.536V26H20.952V12.528L15.928 26H11.512L6.456 12.496V26H0.984V3.536H7.448L13.752 19.088L19.992 3.536H26.424ZM32.791 6.288C31.831 6.288 31.0417 6.01067 30.423 5.456C29.8257 4.88 29.527 4.176 29.527 3.344C29.527 2.49067 29.8257 1.78667 30.423 1.232C31.0417 0.655998 31.831 0.367998 32.791 0.367998C33.7297 0.367998 34.4977 0.655998 35.095 1.232C35.7137 1.78667 36.023 2.49067 36.023 3.344C36.023 4.176 35.7137 4.88 35.095 5.456C34.4977 6.01067 33.7297 6.288 32.791 6.288ZM35.511 8.144V26H30.039V8.144H35.511ZM60.2445 3.536L52.2765 26H45.4285L37.4605 3.536H43.2845L48.8525 20.496L54.4525 3.536H60.2445ZM64.9635 6.288C64.0035 6.288 63.2142 6.01067 62.5955 5.456C61.9982 4.88 61.6995 4.176 61.6995 3.344C61.6995 2.49067 61.9982 1.78667 62.5955 1.232C63.2142 0.655998 64.0035 0.367998 64.9635 0.367998C65.9022 0.367998 66.6702 0.655998 67.2675 1.232C67.8862 1.78667 68.1955 2.49067 68.1955 3.344C68.1955 4.176 67.8862 4.88 67.2675 5.456C66.6702 6.01067 65.9022 6.288 64.9635 6.288ZM67.6835 8.144V26H62.2115V8.144H67.6835ZM70.241 17.04C70.241 15.2053 70.5823 13.5947 71.265 12.208C71.969 10.8213 72.9183 9.75467 74.113 9.008C75.3077 8.26133 76.641 7.888 78.113 7.888C79.3717 7.888 80.4703 8.144 81.409 8.656C82.369 9.168 83.105 9.84 83.617 10.672V8.144H89.089V26H83.617V23.472C83.0837 24.304 82.337 24.976 81.377 25.488C80.4383 26 79.3397 26.256 78.081 26.256C76.6303 26.256 75.3077 25.8827 74.113 25.136C72.9183 24.368 71.969 23.2907 71.265 21.904C70.5823 20.496 70.241 18.8747 70.241 17.04ZM83.617 17.072C83.617 15.7067 83.233 14.6293 82.465 13.84C81.7183 13.0507 80.801 12.656 79.713 12.656C78.625 12.656 77.697 13.0507 76.929 13.84C76.1823 14.608 75.809 15.6747 75.809 17.04C75.809 18.4053 76.1823 19.4933 76.929 20.304C77.697 21.0933 78.625 21.488 79.713 21.488C80.801 21.488 81.7183 21.0933 82.465 20.304C83.233 19.5147 83.617 18.4373 83.617 17.072ZM95.4478 6.288C94.4878 6.288 93.6984 6.01067 93.0798 5.456C92.4824 4.88 92.1838 4.176 92.1838 3.344C92.1838 2.49067 92.4824 1.78667 93.0798 1.232C93.6984 0.655998 94.4878 0.367998 95.4478 0.367998C96.3864 0.367998 97.1544 0.655998 97.7518 1.232C98.3704 1.78667 98.6798 2.49067 98.6798 3.344C98.6798 4.176 98.3704 4.88 97.7518 5.456C97.1544 6.01067 96.3864 6.288 95.4478 6.288ZM98.1998 28.304C98.1998 30.5013 97.6451 32.08 96.5358 33.04C95.4264 34.0213 93.8798 34.512 91.8958 34.512H89.7518V29.872H91.0638C91.6611 29.872 92.0878 29.7547 92.3438 29.52C92.5998 29.2853 92.7278 28.9013 92.7278 28.368V8.144H98.1998V28.304ZM118.646 16.784C118.646 17.296 118.614 17.8293 118.55 18.384H106.166C106.251 19.4933 106.603 20.3467 107.222 20.944C107.862 21.52 108.641 21.808 109.558 21.808C110.923 21.808 111.873 21.232 112.406 20.08H118.23C117.931 21.2533 117.387 22.3093 116.598 23.248C115.83 24.1867 114.859 24.9227 113.686 25.456C112.513 25.9893 111.201 26.256 109.75 26.256C108.001 26.256 106.443 25.8827 105.078 25.136C103.713 24.3893 102.646 23.3227 101.878 21.936C101.11 20.5493 100.726 18.928 100.726 17.072C100.726 15.216 101.099 13.5947 101.846 12.208C102.614 10.8213 103.681 9.75467 105.046 9.008C106.411 8.26133 107.979 7.888 109.75 7.888C111.478 7.888 113.014 8.25067 114.358 8.976C115.702 9.70133 116.747 10.736 117.494 12.08C118.262 13.424 118.646 14.992 118.646 16.784ZM113.046 15.344C113.046 14.4053 112.726 13.6587 112.086 13.104C111.446 12.5493 110.646 12.272 109.686 12.272C108.769 12.272 107.99 12.5387 107.35 13.072C106.731 13.6053 106.347 14.3627 106.198 15.344H113.046ZM123.773 26.256C122.813 26.256 122.023 25.9787 121.405 25.424C120.807 24.848 120.509 24.144 120.509 23.312C120.509 22.4587 120.807 21.744 121.405 21.168C122.023 20.592 122.813 20.304 123.773 20.304C124.711 20.304 125.479 20.592 126.077 21.168C126.695 21.744 127.005 22.4587 127.005 23.312C127.005 24.144 126.695 24.848 126.077 25.424C125.479 25.9787 124.711 26.256 123.773 26.256ZM128.836 17.072C128.836 15.216 129.209 13.5947 129.956 12.208C130.724 10.8213 131.78 9.75467 133.124 9.008C134.489 8.26133 136.047 7.888 137.796 7.888C140.036 7.888 141.903 8.47467 143.396 9.648C144.911 10.8213 145.903 12.4747 146.372 14.608H140.548C140.057 13.2427 139.108 12.56 137.7 12.56C136.697 12.56 135.897 12.9547 135.3 13.744C134.703 14.512 134.404 15.6213 134.404 17.072C134.404 18.5227 134.703 19.6427 135.3 20.432C135.897 21.2 136.697 21.584 137.7 21.584C139.108 21.584 140.057 20.9013 140.548 19.536H146.372C145.903 21.6267 144.911 23.2693 143.396 24.464C141.881 25.6587 140.015 26.256 137.796 26.256C136.047 26.256 134.489 25.8827 133.124 25.136C131.78 24.3893 130.724 23.3227 129.956 21.936C129.209 20.5493 128.836 18.928 128.836 17.072ZM157.107 26.256C155.358 26.256 153.779 25.8827 152.371 25.136C150.984 24.3893 149.886 23.3227 149.075 21.936C148.286 20.5493 147.891 18.928 147.891 17.072C147.891 15.2373 148.296 13.6267 149.107 12.24C149.918 10.832 151.027 9.75467 152.435 9.008C153.843 8.26133 155.422 7.888 157.171 7.888C158.92 7.888 160.499 8.26133 161.907 9.008C163.315 9.75467 164.424 10.832 165.235 12.24C166.046 13.6267 166.451 15.2373 166.451 17.072C166.451 18.9067 166.035 20.528 165.203 21.936C164.392 23.3227 163.272 24.3893 161.843 25.136C160.435 25.8827 158.856 26.256 157.107 26.256ZM157.107 21.52C158.152 21.52 159.038 21.136 159.763 20.368C160.51 19.6 160.883 18.5013 160.883 17.072C160.883 15.6427 160.52 14.544 159.795 13.776C159.091 13.008 158.216 12.624 157.171 12.624C156.104 12.624 155.219 13.008 154.515 13.776C153.811 14.5227 153.459 15.6213 153.459 17.072C153.459 18.5013 153.8 19.6 154.483 20.368C155.187 21.136 156.062 21.52 157.107 21.52ZM191.818 7.952C194.037 7.952 195.797 8.624 197.098 9.968C198.421 11.312 199.082 13.1787 199.082 15.568V26H193.642V16.304C193.642 15.152 193.333 14.2667 192.714 13.648C192.117 13.008 191.285 12.688 190.218 12.688C189.151 12.688 188.309 13.008 187.69 13.648C187.093 14.2667 186.794 15.152 186.794 16.304V26H181.354V16.304C181.354 15.152 181.045 14.2667 180.426 13.648C179.829 13.008 178.997 12.688 177.93 12.688C176.863 12.688 176.021 13.008 175.402 13.648C174.805 14.2667 174.506 15.152 174.506 16.304V26H169.034V8.144H174.506V10.384C175.061 9.63733 175.786 9.05067 176.682 8.624C177.578 8.176 178.591 7.952 179.722 7.952C181.066 7.952 182.261 8.24 183.306 8.816C184.373 9.392 185.205 10.2133 185.802 11.28C186.421 10.2987 187.263 9.49867 188.33 8.88C189.397 8.26133 190.559 7.952 191.818 7.952Z" fill="#023F76"/>
</svg>
