<svg width="199" height="35" viewBox="0 0 199 35" fill="none" xmlns="http://www.w3.org/2000/svg">
<path d="M25.4615 3.536V26H19.9895V12.528L14.9655 26H10.5495L5.4935 12.496V26H0.0214986V3.536H6.4855L12.7895 19.088L19.0295 3.536H25.4615ZM31.8285 6.288C30.8685 6.288 30.0792 6.01067 29.4605 5.456C28.8632 4.88 28.5645 4.176 28.5645 3.344C28.5645 2.49067 28.8632 1.78667 29.4605 1.232C30.0792 0.655998 30.8685 0.367998 31.8285 0.367998C32.7672 0.367998 33.5352 0.655998 34.1325 1.232C34.7512 1.78667 35.0605 2.49067 35.0605 3.344C35.0605 4.176 34.7512 4.88 34.1325 5.456C33.5352 6.01067 32.7672 6.288 31.8285 6.288ZM34.5485 8.144V26H29.0765V8.144H34.5485ZM59.282 3.536L51.314 26H44.466L36.498 3.536H42.322L47.89 20.496L53.49 3.536H59.282ZM64.001 6.288C63.041 6.288 62.2517 6.01067 61.633 5.456C61.0357 4.88 60.737 4.176 60.737 3.344C60.737 2.49067 61.0357 1.78667 61.633 1.232C62.2517 0.655998 63.041 0.367998 64.001 0.367998C64.9397 0.367998 65.7077 0.655998 66.305 1.232C66.9237 1.78667 67.233 2.49067 67.233 3.344C67.233 4.176 66.9237 4.88 66.305 5.456C65.7077 6.01067 64.9397 6.288 64.001 6.288ZM66.721 8.144V26H61.249V8.144H66.721ZM69.2785 17.04C69.2785 15.2053 69.6198 13.5947 70.3025 12.208C71.0065 10.8213 71.9558 9.75467 73.1505 9.008C74.3452 8.26133 75.6785 7.888 77.1505 7.888C78.4092 7.888 79.5078 8.144 80.4465 8.656C81.4065 9.168 82.1425 9.84 82.6545 10.672V8.144H88.1265V26H82.6545V23.472C82.1212 24.304 81.3745 24.976 80.4145 25.488C79.4758 26 78.3772 26.256 77.1185 26.256C75.6678 26.256 74.3452 25.8827 73.1505 25.136C71.9558 24.368 71.0065 23.2907 70.3025 21.904C69.6198 20.496 69.2785 18.8747 69.2785 17.04ZM82.6545 17.072C82.6545 15.7067 82.2705 14.6293 81.5025 13.84C80.7558 13.0507 79.8385 12.656 78.7505 12.656C77.6625 12.656 76.7345 13.0507 75.9665 13.84C75.2198 14.608 74.8465 15.6747 74.8465 17.04C74.8465 18.4053 75.2198 19.4933 75.9665 20.304C76.7345 21.0933 77.6625 21.488 78.7505 21.488C79.8385 21.488 80.7558 21.0933 81.5025 20.304C82.2705 19.5147 82.6545 18.4373 82.6545 17.072ZM94.4852 6.288C93.5253 6.288 92.7359 6.01067 92.1173 5.456C91.5199 4.88 91.2213 4.176 91.2213 3.344C91.2213 2.49067 91.5199 1.78667 92.1173 1.232C92.7359 0.655998 93.5253 0.367998 94.4852 0.367998C95.4239 0.367998 96.1919 0.655998 96.7893 1.232C97.4079 1.78667 97.7173 2.49067 97.7173 3.344C97.7173 4.176 97.4079 4.88 96.7893 5.456C96.1919 6.01067 95.4239 6.288 94.4852 6.288ZM97.2373 28.304C97.2373 30.5013 96.6826 32.08 95.5733 33.04C94.4639 34.0213 92.9173 34.512 90.9333 34.512H88.7892V29.872H90.1013C90.6986 29.872 91.1253 29.7547 91.3813 29.52C91.6373 29.2853 91.7653 28.9013 91.7653 28.368V8.144H97.2373V28.304ZM117.684 16.784C117.684 17.296 117.652 17.8293 117.588 18.384H105.204C105.289 19.4933 105.641 20.3467 106.26 20.944C106.9 21.52 107.678 21.808 108.596 21.808C109.961 21.808 110.91 21.232 111.444 20.08H117.268C116.969 21.2533 116.425 22.3093 115.636 23.248C114.868 24.1867 113.897 24.9227 112.724 25.456C111.55 25.9893 110.238 26.256 108.788 26.256C107.038 26.256 105.481 25.8827 104.116 25.136C102.75 24.3893 101.684 23.3227 100.916 21.936C100.148 20.5493 99.7635 18.928 99.7635 17.072C99.7635 15.216 100.137 13.5947 100.884 12.208C101.652 10.8213 102.718 9.75467 104.084 9.008C105.449 8.26133 107.017 7.888 108.788 7.888C110.516 7.888 112.052 8.25067 113.396 8.976C114.74 9.70133 115.785 10.736 116.532 12.08C117.3 13.424 117.684 14.992 117.684 16.784ZM112.084 15.344C112.084 14.4053 111.764 13.6587 111.124 13.104C110.484 12.5493 109.684 12.272 108.724 12.272C107.806 12.272 107.028 12.5387 106.388 13.072C105.769 13.6053 105.385 14.3627 105.236 15.344H112.084ZM122.81 26.256C121.85 26.256 121.061 25.9787 120.442 25.424C119.845 24.848 119.546 24.144 119.546 23.312C119.546 22.4587 119.845 21.744 120.442 21.168C121.061 20.592 121.85 20.304 122.81 20.304C123.749 20.304 124.517 20.592 125.114 21.168C125.733 21.744 126.042 22.4587 126.042 23.312C126.042 24.144 125.733 24.848 125.114 25.424C124.517 25.9787 123.749 26.256 122.81 26.256ZM127.874 17.072C127.874 15.216 128.247 13.5947 128.994 12.208C129.762 10.8213 130.818 9.75467 132.162 9.008C133.527 8.26133 135.084 7.888 136.834 7.888C139.074 7.888 140.94 8.47467 142.434 9.648C143.948 10.8213 144.94 12.4747 145.41 14.608H139.586C139.095 13.2427 138.146 12.56 136.738 12.56C135.735 12.56 134.935 12.9547 134.338 13.744C133.74 14.512 133.442 15.6213 133.442 17.072C133.442 18.5227 133.74 19.6427 134.338 20.432C134.935 21.2 135.735 21.584 136.738 21.584C138.146 21.584 139.095 20.9013 139.586 19.536H145.41C144.94 21.6267 143.948 23.2693 142.434 24.464C140.919 25.6587 139.052 26.256 136.834 26.256C135.084 26.256 133.527 25.8827 132.162 25.136C130.818 24.3893 129.762 23.3227 128.994 21.936C128.247 20.5493 127.874 18.928 127.874 17.072ZM156.145 26.256C154.395 26.256 152.817 25.8827 151.409 25.136C150.022 24.3893 148.923 23.3227 148.113 21.936C147.323 20.5493 146.929 18.928 146.929 17.072C146.929 15.2373 147.334 13.6267 148.145 12.24C148.955 10.832 150.065 9.75467 151.473 9.008C152.881 8.26133 154.459 7.888 156.209 7.888C157.958 7.888 159.537 8.26133 160.945 9.008C162.353 9.75467 163.462 10.832 164.273 12.24C165.083 13.6267 165.489 15.2373 165.489 17.072C165.489 18.9067 165.073 20.528 164.241 21.936C163.43 23.3227 162.31 24.3893 160.881 25.136C159.473 25.8827 157.894 26.256 156.145 26.256ZM156.145 21.52C157.19 21.52 158.075 21.136 158.801 20.368C159.547 19.6 159.921 18.5013 159.921 17.072C159.921 15.6427 159.558 14.544 158.833 13.776C158.129 13.008 157.254 12.624 156.209 12.624C155.142 12.624 154.257 13.008 153.553 13.776C152.849 14.5227 152.497 15.6213 152.497 17.072C152.497 18.5013 152.838 19.6 153.521 20.368C154.225 21.136 155.099 21.52 156.145 21.52ZM190.855 7.952C193.074 7.952 194.834 8.624 196.135 9.968C197.458 11.312 198.119 13.1787 198.119 15.568V26H192.679V16.304C192.679 15.152 192.37 14.2667 191.751 13.648C191.154 13.008 190.322 12.688 189.255 12.688C188.189 12.688 187.346 13.008 186.727 13.648C186.13 14.2667 185.831 15.152 185.831 16.304V26H180.391V16.304C180.391 15.152 180.082 14.2667 179.463 13.648C178.866 13.008 178.034 12.688 176.967 12.688C175.901 12.688 175.058 13.008 174.439 13.648C173.842 14.2667 173.543 15.152 173.543 16.304V26H168.071V8.144H173.543V10.384C174.098 9.63733 174.823 9.05067 175.719 8.624C176.615 8.176 177.629 7.952 178.759 7.952C180.103 7.952 181.298 8.24 182.343 8.816C183.41 9.392 184.242 10.2133 184.839 11.28C185.458 10.2987 186.301 9.49867 187.367 8.88C188.434 8.26133 189.597 7.952 190.855 7.952Z" fill="white"/>
</svg>
