<svg width="24" height="24" viewBox="0 0 24 24" fill="none" xmlns="http://www.w3.org/2000/svg">
<path d="M17.8333 2.49999H22.5C22.8094 2.49999 23.1062 2.62291 23.325 2.8417C23.5437 3.06049 23.6667 3.35724 23.6667 3.66666V22.3333C23.6667 22.6427 23.5437 22.9395 23.325 23.1583C23.1062 23.3771 22.8094 23.5 22.5 23.5H1.49999C1.19058 23.5 0.893829 23.3771 0.675037 23.1583C0.456245 22.9395 0.333328 22.6427 0.333328 22.3333V3.66666C0.333328 3.35724 0.456245 3.06049 0.675037 2.8417C0.893829 2.62291 1.19058 2.49999 1.49999 2.49999H6.16666V0.166656H8.5V2.49999H15.5V0.166656H17.8333V2.49999ZM15.5 4.83332H8.5V7.16666H6.16666V4.83332H2.66666V9.49999H21.3333V4.83332H17.8333V7.16666H15.5V4.83332ZM21.3333 11.8333H2.66666V21.1667H21.3333V11.8333Z" fill="#E7AC72"/>
</svg>
