<svg width="22" height="23" viewBox="0 0 22 23" fill="none" xmlns="http://www.w3.org/2000/svg">
<g style="mix-blend-mode:exclusion">
<path d="M21.5 21.3333C21.5 21.6427 21.3771 21.9395 21.1583 22.1583C20.9395 22.3771 20.6428 22.5 20.3333 22.5H1.66667C1.35725 22.5 1.0605 22.3771 0.841709 22.1583C0.622917 21.9395 0.5 21.6427 0.5 21.3333V9.07165C0.499877 8.89386 0.540387 8.7184 0.618435 8.55866C0.696484 8.39893 0.810007 8.25914 0.950334 8.14998L10.2837 0.890982C10.4885 0.731668 10.7405 0.645172 11 0.645172C11.2595 0.645172 11.5115 0.731668 11.7163 0.890982L21.0497 8.14998C21.19 8.25914 21.3035 8.39893 21.3816 8.55866C21.4596 8.7184 21.5001 8.89386 21.5 9.07165V21.3333ZM19.1667 20.1666V14.9038V9.64098L11 3.28965L2.83333 9.64098V20.1666H19.1667Z" fill="#E7AC72"/>
</g>
</svg>
