<svg width="27" height="25" viewBox="0 0 27 25" fill="none" xmlns="http://www.w3.org/2000/svg">
<path d="M9.28886 6.80732L12.5198 1.45355C12.9135 0.801082 13.8632 0.811211 14.2429 1.47193L17.2977 6.78688C17.4386 7.03215 17.6769 7.20624 17.9534 7.266L25.2959 8.85298C26.0508 9.01614 26.3436 9.93707 25.8216 10.5063L20.9295 15.8408C20.7276 16.061 20.6347 16.3599 20.6763 16.6557L21.5988 23.2292C21.7075 24.0036 20.9252 24.5975 20.2085 24.2846L13.797 21.4861C13.5419 21.3748 13.252 21.3748 12.9969 21.4861L6.54206 24.3036C5.83475 24.6123 5.05914 24.0374 5.14879 23.2709L5.92623 16.6235C5.95866 16.3462 5.87373 16.068 5.69198 15.8562L1.08136 10.4818C0.590711 9.90987 0.884917 9.02135 1.61993 8.85527L8.65309 7.26604C8.91861 7.20605 9.14821 7.04039 9.28886 6.80732Z" fill="#E48D36"/>
</svg>
