<svg width="473" height="440" viewBox="0 0 473 440" fill="none" xmlns="http://www.w3.org/2000/svg">
<path d="M263.955 440C148.523 440 54.9463 438.189 54.9463 435.951C54.9463 433.717 148.523 431.903 263.955 431.903C264.653 431.903 265.343 431.903 266.038 431.903C267.482 433.886 269.755 435.23 272.358 435.42C272.358 435.42 272.358 435.42 272.359 435.42C272.372 435.422 272.386 435.423 272.4 435.424C272.4 435.424 272.4 435.424 272.401 435.424C272.413 435.425 272.427 435.425 272.441 435.426C272.443 435.426 272.445 435.427 272.447 435.427C272.459 435.427 272.47 435.428 272.483 435.429C272.484 435.429 272.485 435.429 272.487 435.429C272.499 435.43 272.511 435.43 272.523 435.431C272.527 435.431 272.53 435.431 272.535 435.431C272.546 435.432 272.558 435.433 272.569 435.433C272.572 435.433 272.576 435.433 272.579 435.434C272.588 435.434 272.598 435.434 272.607 435.435C272.611 435.435 272.617 435.435 272.621 435.435C272.633 435.437 272.644 435.437 272.655 435.437C272.659 435.437 272.663 435.437 272.666 435.437C272.676 435.437 272.684 435.439 272.693 435.439C272.697 435.439 272.702 435.439 272.706 435.439C272.718 435.439 272.728 435.439 272.74 435.439C272.744 435.441 272.748 435.441 272.753 435.441C272.762 435.441 272.772 435.441 272.781 435.441C272.784 435.441 272.787 435.441 272.791 435.441C272.802 435.441 272.815 435.441 272.826 435.441C272.83 435.441 272.834 435.443 272.837 435.443C272.85 435.443 272.862 435.443 272.875 435.443C272.915 435.444 272.954 435.444 272.993 435.444C275.839 435.444 278.37 434.057 279.936 431.915C298.971 431.942 317.289 432.02 334.559 432.14L333.867 435.183L346.218 435.213L347.609 432.24C354.58 432.299 361.353 432.366 367.902 432.438L368.163 435.266L380.513 435.295L380.913 432.596C386.225 432.665 391.371 432.74 396.32 432.818L396.476 435.332L408.402 435.36L408.575 433.029C416.325 433.173 423.503 433.328 430.039 433.493L430.771 435.415L442.697 435.444L442.304 433.84C461.752 434.454 472.966 435.177 472.966 435.951C472.966 438.189 379.389 440 263.955 440" fill="#DDAAA0"/>
<path d="M416.803 329.712L358.453 329.574L368.163 435.265L380.513 435.295L383.132 417.597L424.019 417.695L430.771 435.415L442.697 435.443L416.803 329.712Z" fill="#FF8E39"/>
<path d="M368.646 435.266C369.576 430.523 370.78 425.681 372.28 420.789C382.847 386.287 404.355 360.596 423.595 357.453L416.803 329.713L358.453 329.575L368.163 435.266H368.646Z" fill="#FF7733"/>
<path d="M416.261 329.712L357.911 329.573L333.867 435.182L346.218 435.212L354.493 417.527L395.379 417.627L396.476 435.331L408.402 435.359L416.261 329.712Z" fill="#FFD252"/>
<path d="M346.218 435.213L354.493 417.527L370.933 417.569L414.248 356.785L416.261 329.713L400.796 329.674L337.742 418.158L333.867 435.183L346.218 435.213Z" fill="#FFE07D"/>
<path d="M362.405 336.919L410.021 337.033L410.229 335.495L361.675 335.379L344.9 413.454L345.957 413.457L362.405 336.919" fill="#FFA73E"/>
<path d="M353.047 417.546L344.612 435.208L346.828 435.213L355.263 417.551L353.047 417.546" fill="#FFA73E"/>
<path d="M415.139 329.709L407.281 435.358L409.01 435.361L416.87 329.712L415.139 329.709Z" fill="#FFA73E"/>
<path d="M377.233 362.738L373.277 362.728L373.604 357.329H373.362L371.316 362.723L367.359 362.714L368.836 350.687L369.212 348.98L372.682 348.987L371.23 355.597L371.504 355.6L373.834 348.99L376.8 348.996L376.223 355.61H376.513L377.967 349L381.422 349.008L381.046 350.715L377.265 362.695L377.233 362.738" fill="#895722"/>
<path d="M377.251 362.738H377.233L377.265 362.695L377.251 362.738Z" fill="#895D33"/>
<path d="M380.333 358.389L382.395 349.013L387.007 349.023L380.333 358.389Z" fill="#895722"/>
<path d="M386.964 362.762L379.376 362.743L380.333 358.389L387.007 349.024L389.985 349.03L389.61 350.737L388.658 352.481L385.173 352.474L384.834 354.004L388.322 354.012L387.567 357.444L384.08 357.434L383.665 359.319L387.72 359.328L386.964 362.762" fill="#895D33"/>
<path d="M393.128 362.775L389.576 362.766L391.836 352.488L389.713 352.483L390.473 349.03L398.417 349.05L398.042 350.756L397.091 352.501L395.387 352.498L393.128 362.775" fill="#895D33"/>
<path d="M356.936 386.234L353.387 386.224L356.406 372.495L363.995 372.514L363.62 374.22L362.683 375.965L359.198 375.957L358.711 378.174L362.198 378.181L361.442 381.613L357.954 381.604L356.936 386.234" fill="#895722"/>
<path d="M362.369 383.598L364.807 372.515L368.341 372.522L367.483 376.422L362.369 383.598" fill="#895722"/>
<path d="M368.89 386.264L361.788 386.246L362.369 383.598L367.483 376.422L366.076 382.821L369.645 382.828L368.89 386.264Z" fill="#895D33"/>
<path d="M376.79 386.281C376.789 386.281 376.787 386.281 376.785 386.281L371.126 386.269C370.284 386.266 369.856 385.559 370.076 384.557L372.345 374.24C372.564 373.24 373.302 372.536 374.144 372.536C374.145 372.536 374.146 372.536 374.147 372.536L379.806 372.55C380.648 372.553 381.077 373.26 380.858 374.261L378.587 384.578C378.368 385.576 377.632 386.281 376.79 386.281M375.51 375.993L374.006 382.84L375.416 382.843L376.922 375.998L375.51 375.993" fill="#895D33"/>
<path d="M386.601 386.305C386.6 386.305 386.598 386.305 386.597 386.305L380.939 386.291C380.095 386.29 379.666 385.583 379.886 384.582L382.156 374.263C382.375 373.266 383.112 372.56 383.951 372.56C383.953 372.56 383.957 372.56 383.959 372.56L389.617 372.574C390.461 372.575 390.889 373.283 390.669 374.284L388.399 384.602C388.179 385.6 387.442 386.305 386.601 386.305M385.322 376.018L383.816 382.863L385.227 382.866L386.733 376.022L385.322 376.018" fill="#895D33"/>
<path d="M398.012 386.336L394.543 386.326L394.536 384.448L399.908 376.911L399.292 379.702C399.149 380.351 398.585 381.075 398.012 381.252L398.387 384.628L398.012 386.336" fill="#895722"/>
<path d="M392.872 386.32L389.321 386.312L392.343 372.58L399.445 372.598C400.272 372.599 400.699 373.306 400.481 374.307L399.908 376.909L394.536 384.446L394.526 382.047L393.812 382.043L392.872 386.32M395.132 376.04L394.569 378.611L395.98 378.615L396.543 376.043L395.132 376.04Z" fill="#895D33"/>
<path d="M116.372 145.976L110.53 145.896L109.68 155.555L117.721 155.666L116.372 145.976Z" fill="#D7F4FF"/>
<path d="M117.172 154.04C115.251 154.383 113.395 151.93 113.032 148.564C112.931 147.642 112.964 146.754 113.089 145.93L110.53 145.896L109.68 155.555L117.721 155.666L117.478 153.93C117.376 153.963 117.279 154.022 117.172 154.04" fill="#B8E5F2"/>
<path d="M118 153.856L109.45 153.739L109.172 155.542L118.271 155.666L118 153.856" fill="#93D3E2"/>
<path d="M150.515 160.963L146.364 161.222L146.218 171.887L151.552 171.959L150.515 160.963" fill="#D8A7B9"/>
<path d="M150.75 168.192C149.648 168.587 148.165 166.281 147.442 163.04C147.298 162.398 147.207 161.775 147.142 161.172L146.364 161.222L146.218 171.887L151.552 171.959L151.166 167.865C151.042 168.017 150.907 168.135 150.75 168.192" fill="#BC8299"/>
<path d="M135.018 233.766L165.733 234.184L163.508 192.461L152.147 169.068L145.53 170.254L136.59 195.006L135.018 233.766" fill="#E87296"/>
<path d="M163.511 213.139C164.097 215.487 164.584 217.84 164.986 220.174L163.508 192.46L152.147 169.067L145.53 170.253L141.278 182.024C149.48 181.705 158.779 194.221 163.511 213.139" fill="#F482A8"/>
<path d="M135.018 233.763L141.946 233.859L143.868 195.259L146.337 172.524L152.147 169.065L145.53 170.251L135.796 195.262L135.018 233.763" fill="#D35B83"/>
<path d="M163.377 192.768L138.791 195.034L138.916 196.474L163.601 196.545L163.377 192.768Z" fill="#D35B83"/>
<path d="M162.546 202.044L145.98 201.818L147.16 223.648L163.164 223.863L162.546 202.044" fill="#FC90B4"/>
<path d="M158.403 191.161L161.788 191.207L152.07 171.117L158.403 191.161" fill="#FFB6D2"/>
<path d="M161.577 203.624L148.025 203.441L148.158 208.642L161.71 208.828L161.577 203.624" fill="#FFB6D2"/>
<path d="M143.959 176.208L139.472 194.722L136.95 230.777L136.923 195.327L143.959 176.208Z" fill="#E87296"/>
<path d="M269.083 425.521L261.405 412.677L265.248 411.138L275.598 422.743L269.083 425.521" fill="#513A40"/>
<path d="M272.901 410.286L84.7374 407.724L92.8736 418.346L267.426 414.851L272.901 410.286" fill="#513A40"/>
<path d="M122.833 160.321L118.573 155.271L108.414 155.133L104.737 162.688L101.337 232.749L128.245 233.117L122.833 160.321" fill="#7AC1ED"/>
<path d="M123.524 209.9C125.169 217.957 126.057 225.82 126.261 233.089L128.245 233.117L122.833 160.321L118.573 155.271L108.414 155.133L104.737 162.688L104.521 167.169C112.27 174.885 119.579 190.576 123.524 209.9" fill="#87D0F4"/>
<path d="M110.29 157.306L118.573 155.272L108.334 154.84L104.737 162.689L101.337 232.75L108.372 232.846L107.291 163L110.29 157.306" fill="#5BB2DD"/>
<path d="M284.507 237.14L86.5649 234.449L85.0493 408.218L276.928 410.828L284.507 237.14Z" fill="#7A6468"/>
<path d="M284.507 237.141L86.5649 234.45L85.0493 408.219L179.336 406.147L198.782 287.637L284.123 245.902L284.507 237.141Z" fill="#664F54"/>
<path d="M276.13 243.381L90.913 240.899L88.7574 401.922L273.976 404.402L276.13 243.381" fill="#FFBC64"/>
<path d="M276.13 243.381L90.9132 240.899L268.514 249.097L273.976 404.402L276.13 243.381" fill="#FFA255"/>
<path d="M252.532 255.193L156.552 247.575L110.402 396.415L208.34 397.729L252.532 255.193Z" fill="#FFD297"/>
<path d="M291.554 234.059L53.5122 230.82L53.4254 237.186L291.466 240.422L291.554 234.059Z" fill="#FFCA61"/>
<path d="M174.54 232.465L53.5122 230.82L53.4254 237.186L200.321 239.182C189.638 237.38 180.779 235.082 174.54 232.465" fill="#FFA852"/>
<path d="M280.794 407.528L81.2757 404.815L81.212 409.455L280.731 412.168L280.794 407.528Z" fill="#F9D4A7"/>
<path d="M171.633 410.607C171.655 409.027 172.464 407.509 173.939 406.074L81.2757 404.813L81.212 409.453L171.64 410.682L171.633 410.607" fill="#FFA852"/>
<path d="M14.6564 245.486L70.1436 248.071L69.6899 281.488L72.9894 319.73L72.4563 358.871L70.7844 376.514C70.7844 376.514 48.0824 395.78 18.1904 382.005L15.2639 347.525L20.9576 319.02L16.9992 294.139L14.6564 245.486" fill="#556A77"/>
<path d="M68.951 257.367L45.267 254.499L20.2261 257.66L18.1228 248.396L69.2211 249.251L68.951 257.367" fill="#465D68"/>
<path d="M69.6899 281.488L70.1436 248.071L69.4578 248.041C67.4443 260.261 63.8369 282.244 63.8267 282.934C63.8143 283.888 65.189 299.831 65.189 299.831L66.2291 317.039L54.6919 345.86L30.4031 305.406L23.4318 279.517L21.8067 258.479L18.4793 245.663L14.6564 245.486L16.9992 294.139L20.9576 319.02L15.2639 347.525L18.1904 382.005C48.0824 395.78 70.7844 376.514 70.7844 376.514L72.4563 358.871L72.9894 319.73L69.6899 281.488" fill="#465D68"/>
<path d="M72.5762 244.762L10.0443 243.912L10.4614 249.723L72.4984 250.49L72.5762 244.762" fill="#A3BAC6"/>
<path d="M65.7888 244.672C65.469 246.704 64.6939 248.619 63.5694 250.38L72.4984 250.49L72.5761 244.762L65.7888 244.672" fill="#84A4B2"/>
<path d="M89.4672 231.694L0.043212 230.476L0 233.637L89.3585 239.652L89.4672 231.694Z" fill="#513A40"/>
<path d="M89.4338 234.043L89.4717 231.31L0.0477059 230.093L0.0361786 230.959L89.4338 234.043" fill="#7A6468"/>
<path d="M65.8069 238.006L89.3584 239.652L89.4717 231.308L72.8218 231.081L65.8069 238.006" fill="#513A40"/>
<path d="M183.827 239.913L179.115 239.849L176.88 404.06L178.312 404.078L183.827 239.913" fill="#664F54"/>
<path d="M264.398 426.734C264.332 431.478 268.127 435.378 272.875 435.443C277.621 435.507 281.523 431.711 281.587 426.964C281.651 422.216 277.855 418.318 273.108 418.251C268.36 418.187 264.462 421.981 264.398 426.734Z" fill="#664F54"/>
<path d="M88.1039 423.382C88.0318 428.653 92.2471 432.986 97.521 433.056C102.794 433.129 107.126 428.911 107.197 423.641C107.269 418.367 103.054 414.034 97.7803 413.963C92.506 413.891 88.176 418.107 88.1039 423.382Z" fill="#664F54"/>
<path d="M266.988 426.767C266.944 430.081 269.594 432.808 272.91 432.851C276.226 432.897 278.95 430.245 278.996 426.931C279.04 423.611 276.391 420.888 273.074 420.842C269.757 420.796 267.033 423.448 266.988 426.767" fill="#F9D4A7"/>
<path d="M268.746 426.79C268.715 429.135 270.589 431.062 272.934 431.091C275.279 431.126 277.203 429.249 277.238 426.907C277.269 424.558 275.394 422.634 273.05 422.602C270.704 422.569 268.778 424.444 268.746 426.79" fill="#664F54"/>
<path d="M90.9341 423.418C90.8839 427.128 93.8491 430.176 97.5597 430.228C101.269 430.279 104.317 427.31 104.367 423.601C104.418 419.891 101.451 416.845 97.7429 416.796C94.0323 416.743 90.9847 419.708 90.9341 423.418" fill="#F9D4A7"/>
<path d="M92.9024 423.446C92.8674 426.069 94.9634 428.223 97.5865 428.257C100.209 428.293 102.364 426.197 102.4 423.575C102.436 420.952 100.338 418.797 97.7149 418.763C95.0925 418.725 92.9382 420.823 92.9024 423.446" fill="#664F54"/>
<path d="M67.494 247.475C67.4804 248.443 68.2538 249.236 69.2211 249.25C70.1884 249.262 70.9824 248.489 70.9947 247.523C71.0091 246.554 70.2357 245.761 69.2684 245.747C68.3019 245.732 67.5064 246.509 67.494 247.475" fill="#556A77"/>
<path d="M40.3908 320.296L53.8234 347.228L48.4582 367.109L40.7155 343.227L40.3908 320.296" fill="#556A77"/>
<path d="M29.3338 306.505L23.27 314.754L18.1364 286.451L22.5501 258.487L29.3338 306.505" fill="#556A77"/>
<path d="M79.2774 237.543L78.5192 236.82L68.6474 247.215L69.4083 247.936L79.2774 237.543" fill="#513A40"/>
<path d="M77.1405 236.872C77.0705 242.057 81.217 246.316 86.4029 246.388C91.5874 246.458 95.8491 242.312 95.92 237.128C95.9899 231.943 91.8426 227.679 86.6584 227.612C81.473 227.543 77.2117 231.686 77.1405 236.872" fill="#7A6468"/>
<path d="M79.8927 236.909C79.8425 240.578 82.7748 243.589 86.4401 243.638C90.1039 243.687 93.1171 240.756 93.1674 237.09C93.2176 233.428 90.2849 230.41 86.62 230.361C82.9563 230.312 79.9434 233.246 79.8927 236.909Z" fill="#FFE9CC"/>
<path d="M68.2893 247.487C68.2824 248.015 68.7043 248.448 69.2316 248.455C69.7588 248.461 70.1926 248.04 70.1996 247.514C70.207 246.986 69.7852 246.555 69.2575 246.545C68.731 246.539 68.2971 246.96 68.2893 247.487Z" fill="#FFE9CC"/>
<path d="M122.968 178.497L109.369 178.314L109.914 216.373L125.74 216.588L122.968 178.497" fill="#C0E6F9"/>
<path d="M122.464 203.91C123.392 208.334 123.851 212.633 123.907 216.566L125.74 216.588L122.968 178.497L109.369 178.314L109.398 180.334C114.441 182.051 119.852 191.457 122.464 203.91" fill="#D2F2FF"/>
<path d="M118.431 156.356L122.102 160.334L110.165 160.17L118.431 156.356Z" fill="#C0E6F9"/>
<path d="M106.527 163.148L117.32 163.296L106.745 165.779L106.527 163.148" fill="#5BB2DD"/>
<path d="M216.137 252.522L190.028 252.168L189.917 260.444L216.024 260.799L216.137 252.522Z" fill="#604A4F"/>
<path d="M169.334 251.886L143.227 251.529L143.114 259.808L169.222 260.164L169.334 251.886Z" fill="#604A4F"/>
<path d="M217.734 252.149L188.443 251.752L188.359 257.983L217.649 258.381L217.734 252.149Z" fill="#FFECB8"/>
<path d="M171.037 251.513L141.746 251.116L141.662 257.348L170.953 257.746L171.037 251.513Z" fill="#FFECB8"/>
<path d="M45.337 253.277L65.015 258.006L61.1273 278.545L46.7314 259.878L45.337 253.277" fill="#465D68"/>
<path d="M272.837 435.441C272.834 435.441 272.83 435.44 272.826 435.44C272.831 435.44 272.834 435.441 272.837 435.441ZM272.791 435.44C272.787 435.44 272.784 435.439 272.781 435.439C272.784 435.439 272.787 435.44 272.791 435.44ZM272.753 435.439C272.748 435.439 272.744 435.439 272.74 435.438C272.744 435.439 272.747 435.439 272.753 435.439ZM272.706 435.437C272.702 435.437 272.697 435.437 272.693 435.437C272.697 435.437 272.702 435.437 272.706 435.437ZM272.666 435.436C272.663 435.436 272.659 435.436 272.655 435.436C272.659 435.436 272.663 435.436 272.666 435.436ZM272.621 435.434C272.617 435.434 272.611 435.434 272.607 435.434C272.612 435.434 272.617 435.434 272.621 435.434ZM272.579 435.433C272.576 435.432 272.572 435.432 272.569 435.432C272.572 435.432 272.576 435.432 272.579 435.433ZM272.535 435.43C272.53 435.43 272.527 435.43 272.523 435.43C272.527 435.43 272.53 435.43 272.535 435.43ZM272.487 435.428C272.485 435.428 272.484 435.428 272.483 435.428C272.484 435.428 272.486 435.428 272.487 435.428ZM272.447 435.426C272.445 435.426 272.443 435.425 272.441 435.425C272.443 435.425 272.445 435.426 272.447 435.426ZM272.401 435.422C272.4 435.422 272.4 435.422 272.4 435.422C272.4 435.422 272.4 435.422 272.401 435.422ZM272.359 435.419C272.357 435.419 272.357 435.419 272.357 435.419C272.357 435.419 272.357 435.419 272.359 435.419Z" fill="#C07164"/>
<path d="M272.875 435.441C272.862 435.441 272.85 435.441 272.837 435.441C272.834 435.441 272.831 435.44 272.826 435.44C272.815 435.44 272.803 435.44 272.791 435.44C272.787 435.44 272.784 435.439 272.781 435.439C272.772 435.439 272.762 435.439 272.753 435.439C272.747 435.439 272.744 435.439 272.74 435.438C272.728 435.438 272.718 435.438 272.706 435.437C272.702 435.437 272.697 435.437 272.693 435.437C272.684 435.437 272.676 435.436 272.666 435.436C272.663 435.436 272.659 435.436 272.655 435.436C272.643 435.435 272.633 435.435 272.621 435.434C272.617 435.434 272.613 435.434 272.607 435.434C272.598 435.433 272.588 435.433 272.579 435.433C272.576 435.432 272.572 435.432 272.569 435.432C272.558 435.432 272.546 435.431 272.535 435.43C272.53 435.43 272.527 435.43 272.523 435.43C272.511 435.429 272.499 435.429 272.487 435.428C272.486 435.428 272.484 435.428 272.483 435.428C272.47 435.427 272.46 435.426 272.447 435.426C272.445 435.426 272.443 435.425 272.441 435.425C272.427 435.423 272.413 435.423 272.401 435.422C272.4 435.422 272.4 435.422 272.4 435.422C272.386 435.421 272.371 435.42 272.359 435.419C272.358 435.419 272.358 435.419 272.358 435.419C268.877 435.164 265.992 432.84 264.888 429.688C269.19 432.133 273.056 435.358 273.145 435.431L272.875 435.441" fill="#583535"/>
<path d="M118.573 155.271L118.21 155.257L118 153.855L118.21 155.256L118.573 155.271ZM109.274 154.878L109.45 153.738L109.274 154.878ZM109.839 153.744L109.45 153.738L109.838 153.744L110.362 147.81L109.839 153.744ZM116.372 145.975L113.089 145.93C113.089 145.929 113.089 145.929 113.089 145.928V145.929L116.372 145.975Z" fill="#DDAAA0"/>
<path d="M117.467 153.85L115.813 153.826C114.442 153.147 113.308 151.118 113.032 148.564C112.931 147.643 112.964 146.754 113.088 145.932L116.372 145.976L117.467 153.85Z" fill="#BBA3A0"/>
<path d="M115.813 153.826L109.839 153.745L110.361 147.812L110.502 146.213L110.527 146.166L110.666 145.899L113.088 145.93C113.088 145.931 113.088 145.931 113.088 145.932C112.964 146.754 112.931 147.643 113.032 148.564C113.308 151.118 114.442 153.147 115.813 153.826Z" fill="#A09998"/>
<path d="M118.21 155.258L109.274 154.88L109.45 153.739L109.839 153.745L115.813 153.826L117.467 153.849L117.468 153.85L118 153.856L118.21 155.258" fill="#7F8D8E"/>
<path d="M112.558 178.357L110.839 178.334C109.307 176.776 108.276 174.731 108.259 172.066C107.969 171.62 107.685 171.171 107.411 170.722L107.407 170.437C109.18 172.691 110.909 175.349 112.558 178.357" fill="#6A8195"/>
<path d="M123.291 182.922L122.968 178.499L112.559 178.358C110.909 175.35 109.18 172.691 107.407 170.438L107.332 165.642L117.32 163.297L107.294 163.16L107.291 163.002L110.29 157.308L118.573 155.274L122.833 160.323L124.5 182.758C124.279 182.798 124.053 182.854 123.833 182.886C123.745 182.898 123.64 182.907 123.523 182.915L123.386 182.92L123.291 182.922M122.102 160.337L118.431 156.359L110.166 160.172L122.102 160.337Z" fill="#758B99"/>
<path d="M107.411 170.721C106.258 168.832 105.267 166.937 104.612 165.266L104.737 162.688L108.334 154.839L109.274 154.879V154.878L118.21 155.256L118.573 155.271L110.29 157.306L107.291 162.999L107.294 163.157L106.527 163.147L106.745 165.778L107.332 165.64L107.407 170.435L107.411 170.721" fill="#4F778B"/>
<path d="M123.136 182.924L122.935 182.923L122.681 182.917L122.419 182.903L122.174 182.889C122.065 182.881 121.955 182.872 121.842 182.862L121.621 182.841C121.489 182.828 121.353 182.812 121.213 182.795L121.045 182.773C120.88 182.752 120.713 182.729 120.538 182.703L120.491 182.694C117.526 182.233 113.453 180.994 110.839 178.334L122.968 178.498L123.29 182.921L123.136 182.924" fill="#B6A2A0"/>
<path d="M122.102 160.334L110.165 160.17L118.431 156.356L122.102 160.334Z" fill="#A79A9C"/>
<path d="M106.745 165.779L106.527 163.148L107.294 163.159L117.32 163.296L107.332 165.641L106.745 165.779" fill="#4F778B"/>
<path d="M148.561 417.232L159.597 417.011L148.561 417.232ZM241.829 415.365L252.14 415.159H252.141L241.829 415.365ZM213.602 232.999L174.542 232.467L213.602 232.998M165.635 232.346L165.186 223.929L165.635 232.346M145.53 170.254L146.242 170.126L146.363 161.223L146.242 170.127L145.53 170.254M151.294 169.221L151.166 167.866L151.294 169.22L152.147 169.068L151.294 169.221ZM151.166 167.866L150.515 160.964L151.166 167.866Z" fill="#DDAAA0"/>
<path d="M150.496 168.236C149.43 168.236 148.112 166.037 147.441 163.04C147.298 162.399 147.206 161.776 147.142 161.173L150.515 160.963L151.166 167.865C151.042 168.018 150.906 168.135 150.75 168.192C150.668 168.222 150.583 168.236 150.496 168.236" fill="#BB6F74"/>
<path d="M146.242 170.125L146.363 161.221L147.142 161.172V161.173C147.206 161.775 147.298 162.398 147.441 163.04C148.112 166.037 149.43 168.236 150.496 168.236C150.583 168.236 150.668 168.221 150.75 168.191C150.906 168.135 151.042 168.018 151.166 167.865L151.294 169.22L146.242 170.125" fill="#A35760"/>
<path d="M165.635 232.344L142.038 232.022L143.807 196.486L157.433 196.525C158.309 198.229 159.144 200.058 159.93 202.006L145.98 201.816L147.16 223.646L163.164 223.861L162.817 211.603L163.121 211.632C163.253 212.129 163.383 212.632 163.511 213.138C164.096 215.484 164.584 217.836 164.986 220.17L165.186 223.927L165.635 232.344M143.945 194.557L145.22 182.805C148.84 184.341 152.494 188.067 155.736 193.47L143.945 194.557" fill="#C94C5E"/>
<path d="M164.986 220.174V220.171V220.172C164.584 217.838 164.096 215.486 163.511 213.139C163.383 212.633 163.253 212.131 163.121 211.634L164.538 211.773L164.986 220.174M161.883 202.035L159.93 202.008C159.144 200.06 158.309 198.23 157.433 196.527L161.884 196.539C161.873 198.514 161.873 200.351 161.883 202.035M155.736 193.472C152.494 188.068 148.84 184.343 145.22 182.806L146.337 172.526L152.147 169.067L161.961 189.272C161.942 190.516 161.925 191.727 161.912 192.903L155.736 193.472M152.07 171.117L158.403 191.161L161.788 191.207L152.07 171.117" fill="#D45769"/>
<path d="M142.038 232.023L135.056 231.929L135.796 195.264L145.53 170.253L152.147 169.066L146.337 172.526L145.22 182.806L143.945 194.558L139.454 194.972L139.472 194.722L143.959 176.209L136.923 195.328L136.95 230.778L139.35 196.474L143.807 196.487L142.038 232.023" fill="#B73D52"/>
<path d="M161.884 196.537L157.433 196.524L143.807 196.485L139.35 196.473L139.454 194.97L143.945 194.556L155.736 193.47L161.912 192.901C161.899 194.156 161.889 195.37 161.884 196.537" fill="#B73D52"/>
<path d="M163.164 223.863L147.16 223.648L145.98 201.818L159.93 202.008L161.882 202.036C161.907 206.419 161.996 209.733 162.134 211.538L162.817 211.604L163.164 223.863M148.025 203.44L148.158 208.641L161.71 208.828L161.577 203.624L148.025 203.44" fill="#DB6071"/>
<path d="M161.788 191.207L158.403 191.161L152.07 171.117L161.788 191.207" fill="#DD7984"/>
<path d="M161.71 208.828L148.158 208.642L148.025 203.441L161.577 203.624L161.71 208.828" fill="#DD7984"/>
<path d="M136.95 230.777L136.923 195.327L143.959 176.208L139.472 194.722L139.454 194.971L139.35 196.474L136.95 230.777" fill="#C94C5E"/>
<path d="M148.562 417.232C148.009 414.861 147.448 412.568 146.886 410.349L160.589 410.535C160.249 412.757 159.915 414.934 159.597 417.011L148.562 417.232M241.829 415.365C240.957 414.146 240.063 412.89 239.155 411.604L250.905 411.763C251.098 412.307 251.291 412.849 251.485 413.389L251.548 413.559C251.744 414.101 251.944 414.622 252.14 415.159L241.828 415.365" fill="#462728"/>
<path d="M249.288 407.098L235.874 406.916C235.176 405.909 234.472 404.889 233.769 403.862L248.263 404.056C248.603 405.077 248.945 406.091 249.288 407.098" fill="#6A4341"/>
<path d="M161.294 405.902L145.684 405.689C145.415 404.668 145.149 403.661 144.885 402.672L161.75 402.898C161.598 403.896 161.446 404.9 161.294 405.902M214.582 242.554L183.752 242.141L183.827 239.912L179.115 239.849L179.084 242.079L130.01 241.422C129.943 240.345 129.877 239.28 129.816 238.224L214.234 239.371C214.344 240.409 214.459 241.47 214.582 242.554" fill="#583535"/>
<path d="M248.263 404.057L233.768 403.863C226.987 393.966 220.086 383.263 215.525 374.553L229.094 330.787C229.736 333.842 230.397 336.906 231.072 339.969C231.496 341.886 231.927 343.804 232.363 345.719C232.445 346.083 232.527 346.444 232.61 346.807C233.066 348.797 233.527 350.785 233.996 352.77L234.007 352.814C234.464 354.747 234.93 356.672 235.4 358.597C235.489 358.964 235.58 359.333 235.669 359.701C236.153 361.667 236.642 363.628 237.138 365.578L237.15 365.626C237.632 367.52 238.122 369.405 238.617 371.284C238.718 371.671 238.821 372.058 238.923 372.442C239.43 374.356 239.942 376.261 240.462 378.152L240.489 378.251C240.991 380.075 241.5 381.884 242.013 383.685C242.129 384.093 242.245 384.5 242.361 384.904C242.89 386.745 243.424 388.575 243.964 390.386L244.008 390.536C244.53 392.278 245.058 394.001 245.588 395.712C245.716 396.125 245.845 396.537 245.975 396.949C246.525 398.706 247.079 400.449 247.639 402.169L247.698 402.346C247.886 402.919 248.075 403.489 248.263 404.057M161.75 402.898L144.885 402.672C144.352 400.67 143.831 398.732 143.334 396.856L162.621 397.115C162.339 399 162.046 400.941 161.75 402.898ZM136.435 312.45C134.237 292.305 131.564 265.517 130.092 242.707L179.045 244.966L178.985 249.354L156.552 247.574L155.396 251.301L141.746 251.116L141.662 257.348L143.148 257.368L143.114 259.808L152.717 259.939L136.435 312.45M215.727 252.121L213.465 252.091L183.497 249.713L183.65 245.179L215.051 246.628C215.262 248.408 215.488 250.242 215.727 252.121" fill="#DD7D3F"/>
<path d="M215.051 246.629L183.65 245.179L183.752 242.142L214.582 242.555C214.729 243.882 214.886 245.237 215.051 246.629M179.045 244.966L130.092 242.707C130.065 242.277 130.037 241.849 130.01 241.423L179.084 242.08L179.045 244.966" fill="#DD6C35"/>
<path d="M162.621 397.115L143.334 396.856C141.014 388.105 139.191 380.682 138.895 374.157C138.252 360.005 140.615 347.299 139.971 342.793C139.751 341.244 138.255 329.121 136.436 312.451L152.717 259.939L169.222 260.165L169.255 257.723L170.953 257.746L171.037 251.514L155.396 251.301L156.552 247.574L178.985 249.355L178.668 272.648C178.662 272.648 178.654 272.647 178.648 272.646C175.134 278.336 167.842 313.567 164.515 332.807H164.516C164.148 334.93 163.829 336.857 163.569 338.528L163.561 338.575C163.513 338.887 163.466 339.19 163.422 339.484L163.402 339.615C163.362 339.881 163.324 340.14 163.288 340.39L163.265 340.548C163.231 340.78 163.199 341.008 163.169 341.226L163.142 341.426C163.114 341.622 163.088 341.817 163.064 342L163.034 342.229C163.014 342.389 162.994 342.546 162.976 342.694L162.947 342.947C162.932 343.076 162.917 343.209 162.904 343.326L162.879 343.565C162.869 343.669 162.857 343.775 162.849 343.87L162.83 344.106L162.812 344.339L162.801 344.547L162.793 344.718L162.792 344.897L162.793 345.009L162.813 345.206C163.457 348.423 165.387 374.804 165.387 377.377C165.387 378.367 164.147 386.942 162.621 397.115M215.525 374.553C212.872 369.488 211.011 365.099 210.425 361.935C208.21 349.976 191.986 305.072 182.455 280.749L183.497 249.713L213.465 252.091L188.443 251.752L188.359 257.983L189.95 258.005L189.918 260.445L216.024 260.8L216.058 258.36L216.545 258.366C219.347 279.109 223.602 304.68 229.094 330.787L215.525 374.553Z" fill="#DD8C5F"/>
<path d="M214.234 239.373L129.816 238.226V238.225L200.321 239.182C189.64 237.38 180.781 235.082 174.542 232.467L213.602 232.999C213.786 235.009 213.997 237.138 214.234 239.373" fill="#DD873D"/>
<path d="M200.321 239.182L129.816 238.224C129.689 236.053 129.573 233.925 129.473 231.853L135.056 231.93L142.038 232.024L165.635 232.345L174.54 232.465L174.542 232.466C180.781 235.082 189.64 237.38 200.321 239.182" fill="#DD7033"/>
<path d="M250.905 411.762L239.155 411.603C238.079 410.079 236.981 408.512 235.874 406.917L249.288 407.099C249.303 407.145 249.319 407.191 249.335 407.237C249.475 407.649 249.616 408.061 249.758 408.473C250.138 409.576 250.52 410.675 250.905 411.762ZM160.589 410.534L146.886 410.348V410.346L160.589 410.533V410.534ZM161.294 405.903L145.684 405.69L161.294 405.903Z" fill="#D88D69"/>
<path d="M160.589 410.533L146.886 410.346C146.484 408.756 146.082 407.207 145.684 405.69L161.294 405.903C161.059 407.455 160.823 409.003 160.589 410.533" fill="#DD7033"/>
<path d="M182.455 280.75C181.26 277.701 180.172 274.977 179.229 272.68C179.041 272.67 178.852 272.668 178.668 272.649L178.985 249.356L179.045 244.967L179.084 242.081L179.115 239.85L183.827 239.914L183.752 242.143L183.65 245.18L183.497 249.714L182.455 280.75" fill="#583535"/>
<path d="M216.024 260.799L189.917 260.444L189.95 258.003L216.058 258.358L216.024 260.799Z" fill="#533131"/>
<path d="M169.222 260.164L152.717 259.939L143.114 259.808L143.148 257.368L169.255 257.723L169.222 260.164" fill="#533131"/>
<path d="M216.545 258.367L216.058 258.361L189.95 258.006L188.359 257.984L188.443 251.753L213.465 252.092L215.727 252.123C215.984 254.151 216.257 256.232 216.545 258.367Z" fill="#DD9E74"/>
<path d="M170.953 257.746L169.255 257.723L143.148 257.368L141.662 257.348L141.746 251.116L155.396 251.301L171.037 251.513L170.953 257.746" fill="#DD9E74"/>
<path d="M251.935 233.52L236.032 233.302L251.935 233.518V233.52Z" fill="#DDAAA0"/>
<path d="M280.937 318.955L275.264 308.135L275.374 299.896L281.277 311.156L280.937 318.955" fill="#6A4341"/>
<path d="M251.979 243.057L241.069 242.91L239.392 239.713L251.762 239.882C251.756 240.092 251.75 240.298 251.745 240.502C251.743 241.31 251.831 242.167 251.979 243.057Z" fill="#583535"/>
<path d="M270.254 298.576L251.182 262.199C250.909 262.381 250.676 262.48 250.514 262.48C250.479 262.48 250.448 262.476 250.419 262.467C250.383 262.455 250.341 262.438 250.292 262.416L252.532 255.191L242.742 254.413C242.802 253.972 242.952 253.507 243.211 253.023C241.691 252.19 240.381 250.363 241.642 247.854L253.285 248.391C253.957 250.729 254.636 252.989 254.832 254.815C254.985 256.253 254.551 257.692 253.9 258.933L269.935 289.52L270.254 298.576" fill="#DD7D3F"/>
<path d="M275.264 308.135L270.254 298.579L269.935 289.522L275.374 299.896L275.264 308.135M253.285 248.394L241.642 247.856C241.905 247.333 242.28 246.777 242.79 246.197L241.069 242.911L251.979 243.058C252.263 244.776 252.772 246.608 253.285 248.394" fill="#DD6C35"/>
<path d="M250.292 262.416C249.178 261.917 244.756 258.893 244.08 257.68L244.037 257.615C243.189 256.866 242.56 255.748 242.742 254.413L252.532 255.191L250.292 262.416Z" fill="#DD8C5F"/>
<path d="M251.762 239.881L239.392 239.712L236.032 233.302L251.935 233.519C251.872 235.784 251.814 237.934 251.762 239.881" fill="#DD873D"/>
<path d="M275.063 253.434C272.792 252.853 269.799 249.815 274.372 245.429C278.947 241.042 277.475 247.607 277.475 247.607C277.475 247.607 277.699 254.106 275.063 253.434Z" fill="#FFAE85"/>
<path d="M276.196 258.433C274.013 257.583 271.407 254.208 276.479 250.404C281.549 246.601 279.295 252.94 279.295 252.94C279.295 252.94 278.733 259.418 276.196 258.433Z" fill="#FFAE85"/>
<path d="M241.702 115.254C241.702 115.254 244.661 111.911 246.694 111.496L252.573 114.678L249.109 119.703L241.702 115.254Z" fill="#4085A8"/>
<path d="M184.694 100.683C184.694 100.683 186.896 96.7995 188.799 95.9713L195.21 97.8658L192.863 103.5L184.694 100.683Z" fill="#4085A8"/>
<path d="M216.824 75.9375C212.642 66.2855 211.034 32.8303 216.503 26.3953C221.971 19.9614 244.815 23.4987 249.317 27.6819C253.82 31.8641 216.824 75.9375 216.824 75.9375Z" fill="#87382B"/>
<path d="M251.83 71.9531C247.811 62.2327 235.376 36.6571 240.951 30.3158C246.526 23.9725 269.2 27.0167 270.218 33.0787C275.915 66.9607 251.83 71.9531 251.83 71.9531" fill="#A05040"/>
<path d="M254.501 118.369C263.579 126.581 277.291 181.256 276.07 186.422C274.854 191.589 262.167 202.976 259.461 202.338C256.755 201.698 244.278 187.865 242.143 182.88C239.072 175.712 230.671 132.58 233.018 128.673C235.37 124.765 247.826 112.331 254.501 118.369" fill="#EADAB2"/>
<path d="M257.573 156.706C256.239 129.326 259.419 126.212 254.501 118.369C249.722 110.743 235.37 124.765 233.018 128.673C230.671 132.58 239.072 175.712 242.143 182.88C244.278 187.865 256.755 201.698 259.461 202.338C261.196 202.746 267.018 198.223 271.305 193.56C264.621 193.428 258.587 177.514 257.573 156.706" fill="#E0BC8D"/>
<path d="M255.775 202.846C255.775 202.846 251.643 198.527 250.705 193.081C250.237 190.367 251.646 169.876 266.29 170.356C277.746 170.733 277.746 187.447 277.746 187.447L255.775 202.846" fill="#FF715A"/>
<path d="M260.281 178.526C260.281 175.717 260.912 173.107 261.985 170.905C251.371 174.126 250.286 190.663 250.705 193.081C251.643 198.527 255.775 202.846 255.775 202.846L270.315 192.653C264.711 192.138 260.281 186.018 260.281 178.526" fill="#F25444"/>
<path d="M253.38 117.913C250.485 112.122 179.989 90.4157 171.304 101.998C162.618 113.578 161.169 198.991 162.134 211.536L241.273 219.258C241.757 205.746 256.275 123.704 253.38 117.913" fill="#EADAB2"/>
<path d="M204.236 101.193C204.236 101.193 205.069 110.732 218.027 118.056L224.038 114.206L229.108 119.84C229.108 119.84 238.473 117.134 239.741 111.077C239.741 111.077 228.169 104.394 204.236 101.193" fill="#FF715A"/>
<path d="M207.998 141.777C188.259 132.565 173.44 119.779 168.522 108.956C162.31 132.741 161.284 200.472 162.134 211.536L241.273 219.258C241.565 211.103 247.658 178.157 251.806 152.046C240.273 152.848 224.28 149.376 207.998 141.777Z" fill="#D3AA79"/>
<path d="M194.667 99.043L185.993 98.5699C185.993 98.5699 191.838 117.57 191.629 137.349L199.334 138.818C199.334 138.818 200.914 113.246 194.667 99.043" fill="#D3AA79"/>
<path d="M251.91 115.362L243.589 112.469C243.589 112.469 245.083 131.922 240.527 150.394L247.686 153.945C247.686 153.945 254.852 130.432 251.91 115.362" fill="#E0BC8D"/>
<path d="M243.698 213.233C224.369 197.808 162.2 208.757 162.2 208.757C161.041 243.976 170.177 338.288 170.82 342.793C171.464 347.298 169.102 360.004 169.744 374.156C170.386 388.312 178.218 406.653 182.724 433.676H187.87C187.87 433.676 196.237 379.949 196.237 377.376C196.237 374.803 194.306 348.423 193.661 345.206C193.016 341.988 206.441 271.363 210.39 271.857C214.251 272.339 238.056 344.562 241.273 361.934C244.491 379.306 286.173 433.676 286.173 433.676H290.515C260.276 367.403 241.445 231.089 243.698 213.233Z" fill="#63A4D6"/>
<path d="M195.364 332.807C186.226 330.674 177.437 328.111 169.066 325.188C169.98 335.052 170.661 341.677 170.82 342.793C171.464 347.298 169.101 360.004 169.744 374.156C170.386 388.312 178.218 406.653 182.724 433.676H187.87C187.87 433.676 196.237 379.949 196.237 377.376C196.237 374.803 194.306 348.423 193.661 345.206C193.503 344.42 194.186 339.611 195.364 332.807" fill="#519ECE"/>
<path d="M235.17 339.05C238.141 348.945 240.424 357.351 241.273 361.934C244.491 379.306 286.173 433.676 286.173 433.676H290.515C279.213 408.909 269.506 374.355 261.896 339.86C253.239 340.061 244.302 339.798 235.17 339.05" fill="#519ECE"/>
<path d="M195.431 125.16C195.431 136.261 183.368 200.441 181.436 209.126L243.205 228.91C244.651 203.818 255.749 138.191 255.749 138.191L195.431 125.16Z" fill="#63A4D6"/>
<path d="M176.176 376.952C175.813 362.657 178.426 349.826 177.87 345.277C177.318 340.727 181.057 246.861 182.909 211.295L159.915 209.132C158.756 244.351 170.177 338.288 170.82 342.793C171.464 347.298 169.102 360.004 169.744 374.156C170.386 388.312 178.218 406.653 182.724 433.676H187.454C183.385 408.236 176.525 390.644 176.176 376.952" fill="#4491C1"/>
<path d="M247.948 364.608C245.072 347.063 217.748 268.872 213.897 268.384C213.098 268.283 211.286 267.383 209.81 272.029C218.12 292.131 238.756 348.337 241.273 361.934C244.491 379.306 286.173 433.676 286.173 433.676H288.966C280.128 421.467 250.392 379.528 247.948 364.608Z" fill="#4491C1"/>
<path d="M160.562 211.86L160.832 221.438C160.832 221.438 211.167 216.085 243.737 225.662L242.817 214.395C242.817 214.395 214.396 203.408 160.562 211.86Z" fill="#4491C1"/>
<path d="M236.355 191.491C239.87 197.247 242.814 203.073 245.191 208.816C248.809 179.236 255.749 138.191 255.749 138.191L195.431 125.159C195.431 129.001 193.986 139.198 192.018 151.25C206.799 156.05 223.673 170.721 236.355 191.491Z" fill="#6BB1DB"/>
<path d="M172.752 100.55C161.588 106.458 134.629 156.526 134.629 161.833C134.629 167.142 145.461 179.369 148.356 179.369C151.253 179.369 166.221 169.083 169.577 164.72C174.402 158.449 189.867 128.168 189.671 123.595C189.197 112.535 180.955 96.2074 172.752 100.55Z" fill="#EADAB2"/>
<path d="M181.436 141.777C171.798 157.836 158.812 166.718 151.586 162.381C144.855 158.343 144.777 143.918 151.547 127.973C142.528 142.975 134.629 158.961 134.629 161.834C134.629 167.142 144.762 181.137 147.657 181.137C150.554 181.137 166.5 170.54 169.856 166.178C174.681 159.905 189.867 128.169 189.671 123.596C189.664 123.407 189.647 123.215 189.635 123.025C187.908 129.134 185.126 135.628 181.436 141.777" fill="#E0BC8D"/>
<path d="M167.615 177.387C167.615 177.387 160.712 182.034 154.683 182.884C151.679 183.309 132.094 180.711 141.748 163.554C149.3 150.134 169.012 151.014 173.895 154.957C180.938 160.643 167.615 177.387 167.615 177.387Z" fill="#FF715A"/>
<path d="M146.145 170.978C143.339 170.848 141.125 169.988 139.6 168.63C136.167 181.226 152.006 183.263 154.682 182.885C160.712 182.034 167.615 177.387 167.615 177.387L166.542 159.86C162.517 166.41 153.629 171.323 146.145 170.978Z" fill="#F25444"/>
<path d="M267.242 176.2C274.514 175.02 284.185 192.092 283.88 197.601C283.574 203.107 282.347 249.762 282.347 249.762L278.743 250.779C278.743 250.779 255.334 205.983 255.586 200.026C255.845 194.071 258.215 177.665 267.242 176.2Z" fill="#FFCD9C"/>
<path d="M265.941 218.152C261.546 199.847 264.92 183.517 272.452 181.906C273.983 181.579 275.586 181.891 277.202 182.734C274.123 178.711 270.449 175.678 267.242 176.2C258.215 177.665 254.069 193.722 253.811 199.679C253.559 205.635 278.743 250.779 278.743 250.779L281.043 250.131C275.291 242.714 268.567 229.088 265.941 218.152" fill="#FFAE85"/>
<path d="M253.168 114.536L246.713 111.488C246.713 111.488 249.771 127.892 246.719 143.95L254.142 146.395C254.142 146.395 259.749 125.316 253.168 114.536Z" fill="#6BB1DB"/>
<path d="M197.501 96.1026L188.8 95.973C188.8 95.973 195.05 112.966 195.104 129.662L202.711 129.521C202.711 129.521 203.954 107.891 197.501 96.1026" fill="#6BB1DB"/>
<path d="M206.331 102.702L218.827 80.5734L241.678 92.1652L238.547 111.41C238.547 111.41 214.186 117.303 206.331 102.702Z" fill="#FFCD9C"/>
<path d="M282.291 435.443H304.007C304.007 435.443 291.942 425.31 286.634 427.241C281.326 429.17 282.291 435.443 282.291 435.443" fill="#FCEBCD"/>
<path d="M176.611 435.443H193.019C193.019 435.443 189.157 425.31 183.849 427.241C178.543 429.17 176.611 435.443 176.611 435.443Z" fill="#FCEBCD"/>
<path d="M199.06 266.321C202.629 267.071 220.656 267.448 225.726 265.193C225.726 265.193 217.841 272.518 210.892 272.705C203.943 272.892 199.06 266.321 199.06 266.321Z" fill="#4491C1"/>
<path d="M173.895 337.682L184.977 351.578L175.211 350.077L173.895 337.682Z" fill="#4491C1"/>
<path d="M239.98 341.377L252.601 353.891L242.726 353.534L239.98 341.377Z" fill="#4491C1"/>
<path d="M244.38 112.744L243.589 112.469L244.38 112.744ZM243.593 112.529L243.589 112.47C243.589 112.471 243.591 112.491 243.593 112.529Z" fill="#DDAAA0"/>
<path d="M245.667 113.191L244.379 112.744L244.384 112.745C245.013 112.26 245.671 111.847 246.281 111.627C246.09 112.15 245.884 112.673 245.667 113.191" fill="#375969"/>
<path d="M225.007 131.549L211.481 128.627C208.337 126.387 205.391 123.088 202.654 119.288C202.35 113.501 201.505 106.247 199.343 100.251C201.167 100.56 203.026 100.905 204.907 101.284C204.684 101.254 204.462 101.223 204.236 101.193C204.236 101.193 205.069 110.731 218.027 118.055L224.038 114.205L229.108 119.839C229.108 119.839 238.473 117.133 239.741 111.076C239.741 111.076 239.706 111.056 239.637 111.018C241.038 111.531 242.363 112.037 243.593 112.532V112.528C243.617 112.853 243.727 114.484 243.786 117.048C239.732 124.274 233.193 130.233 225.007 131.549" fill="#CB9270"/>
<path d="M229.108 119.84L224.038 114.206L218.027 118.056C205.069 110.732 204.236 101.193 204.236 101.193C204.462 101.224 204.684 101.255 204.906 101.285C204.918 101.287 204.93 101.289 204.94 101.291C205.625 101.387 206.3 101.484 206.964 101.582L206.331 102.703C210.678 110.783 220.077 112.587 227.606 112.587C233.685 112.587 238.547 111.411 238.547 111.411L238.691 110.527C239.169 110.765 239.484 110.935 239.633 111.018C239.635 111.018 239.636 111.018 239.637 111.019C239.706 111.057 239.741 111.077 239.741 111.077C238.473 117.134 229.108 119.84 229.108 119.84" fill="#DD4B38"/>
<path d="M243.786 117.049C243.727 114.485 243.617 112.854 243.593 112.529C243.591 112.492 243.589 112.472 243.589 112.47V112.469L244.38 112.744L245.667 113.192C245.118 114.504 244.49 115.796 243.786 117.049Z" fill="#C27D58"/>
<path d="M197.501 96.1035L189.376 95.9823C189.375 95.9823 189.375 95.9823 189.375 95.9823L197.501 96.1035Z" fill="#DDAAA0"/>
<path d="M221.597 131.822C220.526 131.822 219.428 131.743 218.31 131.578C215.942 131.23 213.663 130.184 211.481 128.628L225.007 131.55C223.901 131.728 222.763 131.822 221.597 131.822Z" fill="#5D768A"/>
<path d="M202.654 119.287C197.441 112.051 192.986 103 189.375 95.9802L197.501 96.1013C198.202 97.3805 198.806 98.7799 199.336 100.249C199.339 100.249 199.341 100.25 199.343 100.25C201.505 106.246 202.35 113.5 202.654 119.287" fill="#5D768A"/>
<path d="M227.606 112.586C220.077 112.586 210.678 110.782 206.331 102.702L206.964 101.581C206.964 101.581 206.964 101.581 206.965 101.582L218.827 80.5733L219.245 80.7861C218.707 85.4804 218.566 89.0472 219.105 90.2041C220.503 93.203 229.847 101.935 239.332 106.584L238.691 110.526L238.547 111.41C238.547 111.41 233.685 112.586 227.606 112.586" fill="#DD8962"/>
<path d="M226.222 150.679C227.367 150.729 230.944 148.703 229.975 146.255C229.006 143.809 225.83 147.737 225.83 147.737C225.83 147.737 224.086 150.586 226.222 150.679" fill="#FFAE85"/>
<path d="M364.214 418.955L189.561 85.8276C189.383 85.4893 189.35 85.0942 189.467 84.7307C189.583 84.3671 189.842 84.0658 190.182 83.893C191.411 83.2755 192.906 83.757 193.543 84.9741L367.718 417.191L364.214 418.955Z" fill="#825046"/>
<path d="M226.273 44.4446C223.679 52.556 217.216 86.1546 219.105 90.205C220.994 94.2555 237.37 108.76 249.022 109.547C252.955 108.941 269.109 72.1402 269.673 48.4782C270.285 22.7477 233.994 20.282 226.273 44.4446" fill="#FFCD9C"/>
<path d="M262.965 69.6904C263.851 67.6156 263.562 65.504 262.326 64.9782C261.087 64.4492 259.365 65.7031 258.479 67.7768C257.592 69.8516 257.881 71.9632 259.12 72.4911C260.357 73.018 262.08 71.7641 262.965 69.6904" fill="#604940"/>
<path d="M225.913 80.5898C228.166 72.8904 248.076 30.8264 237.183 26.8824C224.129 22.1575 219.906 60.6864 219.906 60.6864L222.535 77.2117L225.913 80.5898" fill="#87382B"/>
<path d="M213.036 59.8956C216.163 56.7082 223.596 60.9588 225.118 64.8196C226.348 67.9091 227.669 86.722 217.738 82.2553C210.762 79.1163 206.116 66.8996 213.036 59.8956Z" fill="#FFCD9C"/>
<path d="M214.218 63.9487C216.124 62.13 220.743 64.6483 221.711 66.8917C222.496 68.6882 223.455 79.5762 217.293 76.9156C212.963 75.0452 210.001 67.9433 214.218 63.9487" fill="#EF8F6F"/>
<path d="M217.118 70.4214C218.176 69.413 220.739 70.8102 221.275 72.0546C221.71 73.0514 222.237 79.0924 218.818 77.614C216.414 76.5761 214.773 72.6384 217.118 70.4214" fill="#FFCD9C"/>
<path d="M158.027 207.914L158.308 217.491C158.308 217.491 210.985 212.139 245.071 221.717L246.761 209.886C246.761 209.886 214.366 199.464 158.027 207.914" fill="#F4EECE"/>
<path d="M195.868 209.135C195.868 207.616 195.958 206.123 196.119 204.653C185.049 204.846 172.312 205.772 158.027 207.915L158.308 217.492C158.308 217.492 175.424 215.755 196.453 216.034C196.074 213.798 195.868 211.492 195.868 209.135" fill="#F2DEB6"/>
<path d="M208.31 215.595C208.31 216.585 209.075 217.407 210.063 217.479L220.515 218.228C221.404 218.291 222.209 217.702 222.417 216.834L224.943 206.276C225.081 205.701 224.959 205.095 224.61 204.618C224.261 204.141 223.72 203.84 223.131 203.797L211.019 202.904C210.319 202.852 209.63 203.093 209.116 203.572C208.602 204.049 208.31 204.718 208.31 205.42V215.595" fill="#FFBD5C"/>
<path d="M211.714 212.986C211.714 213.92 212.435 214.693 213.366 214.761L218.785 215.15C219.492 215.202 220.134 214.732 220.298 214.042L221.758 207.938C221.841 207.596 221.768 207.236 221.56 206.953C221.353 206.668 221.031 206.489 220.68 206.464L213.01 205.899C212.676 205.874 212.347 205.988 212.1 206.217C211.855 206.446 211.714 206.767 211.714 207.102V212.986" fill="#F4EECE"/>
<path d="M219.291 210.739C219.322 210.195 218.148 209.688 216.673 209.608C215.197 209.527 213.978 209.9 213.948 210.444C213.916 210.99 215.09 211.495 216.566 211.575C218.041 211.657 219.261 211.283 219.291 210.739Z" fill="#FFBD5C"/>
<path d="M206.01 219.37V258.057L207.886 257.68L210.703 219.37H206.01Z" fill="#4491C1"/>
<path d="M257.342 55.6913C257.342 55.6913 259.618 87.3057 258.686 88.1434C257.769 88.9684 247.09 82.1773 247.09 82.1773L257.342 55.6913Z" fill="#FFCD9C"/>
<path d="M258.027 56.4774L256.768 59.6902C257.412 68.9639 258.525 86.3722 257.828 87.0076C257.149 87.6292 251.003 83.9971 247.969 82.1394L247.685 82.8707C247.685 82.8707 258.38 89.6819 259.303 88.861C260.24 88.0297 258.027 56.4774 258.027 56.4774" fill="#FFAE85"/>
<path d="M259.986 59.2154C260.239 60.3492 268.683 63.2438 269.963 62.6253C271.245 62.0067 272.344 58.9014 272.07 58.2977C271.795 57.6928 262.641 50.7837 261.452 50.9786C260.262 51.1746 259.437 56.7561 259.986 59.2154Z" fill="#A05040"/>
<path d="M255.588 56.998C254.458 57.6608 242.396 53.4628 241.751 51.956C241.108 50.4502 242.914 46.874 243.64 46.6337C244.365 46.3945 258.004 48.4998 258.905 49.6073C259.805 50.7168 258.039 55.5639 255.588 56.998" fill="#A05040"/>
<path d="M253.001 90.4357L239.058 81.9091C239.058 81.9091 234.607 87.9785 235.442 89.9964C236.278 92.0142 247.321 96.6273 248.175 96.4851C249.029 96.3418 253.001 90.4357 253.001 90.4357Z" fill="#562F2A"/>
<path d="M249.743 93.873C250.961 92.2746 252.246 90.3652 252.246 90.3652L239.266 82.4277C239.266 82.4277 237.979 84.1842 236.975 86.063L249.743 93.873" fill="#FFF6E1"/>
<path d="M250.477 63.9634C251.363 61.8897 251.074 59.7781 249.838 59.2502C248.598 58.7223 246.877 59.9752 245.99 62.0499C245.104 64.1247 245.392 66.2352 246.632 66.7642C247.869 67.2921 249.591 66.0371 250.477 63.9634" fill="#604940"/>
<path d="M216.446 26.4648L216.447 26.4638L216.446 26.4648ZM216.464 26.4437C216.465 26.4427 216.466 26.4406 216.467 26.4396C216.466 26.4417 216.465 26.4427 216.464 26.4437ZM216.48 26.4227C216.483 26.4206 216.484 26.4195 216.485 26.4174C216.484 26.4185 216.482 26.4216 216.48 26.4227ZM216.561 26.33C218.543 24.0729 222.692 23.0656 227.418 22.8917C222.692 23.0656 218.541 24.0729 216.561 26.33Z" fill="#DDAAA0"/>
<path d="M225.437 36.8027C221.814 35.1853 218.156 33.2307 214.527 30.8883C215.03 28.9589 215.662 27.4248 216.446 26.4659L216.447 26.4648C216.452 26.4585 216.457 26.4522 216.464 26.4448C216.465 26.4437 216.466 26.4427 216.467 26.4406C216.471 26.4353 216.476 26.429 216.48 26.4237C216.482 26.4227 216.484 26.4195 216.485 26.4184C216.491 26.4111 216.497 26.4047 216.503 26.3974C216.523 26.3752 216.541 26.3531 216.561 26.331C218.542 24.074 222.692 23.0666 227.418 22.8927C227.922 22.8748 228.432 22.8653 228.946 22.8653C236.525 22.8653 245.106 24.8105 248.54 27.0918C246.959 27.3152 245.491 27.6703 244.226 28.1729C242.706 28.4837 241.206 28.941 239.754 29.5448C239.238 28.2466 238.404 27.3246 237.183 26.8821C236.429 26.6092 235.703 26.4806 235.008 26.4806C230.869 26.4806 227.741 31.0253 225.437 36.8027" fill="#75251B"/>
<path d="M269.118 42.6348C266.873 32.7615 258.216 27.6711 249.144 27.6711C247.506 27.6711 245.856 27.8365 244.226 28.1705C245.491 27.6679 246.959 27.3128 248.539 27.0894C248.542 27.0905 248.544 27.0926 248.546 27.0936C249.947 26.8955 251.438 26.8018 252.957 26.8018C260.903 26.8018 269.596 29.3749 270.218 33.0766C270.773 36.3757 271.028 39.3799 271.069 42.1522C270.469 42.3218 269.818 42.4841 269.118 42.6348" fill="#8B3528"/>
<path d="M257.497 43.7461C252.189 43.7461 246.031 43.1455 239.454 41.566C240.52 36.544 240.821 32.2343 239.754 29.5432C241.206 28.9394 242.706 28.4821 244.226 28.1712C245.856 27.8372 247.506 27.6718 249.144 27.6718C258.216 27.6718 266.873 32.7622 269.118 42.6355C266.071 43.294 262.105 43.7461 257.497 43.7461Z" fill="#DD8962"/>
<path d="M239.454 41.5664C234.933 40.4811 230.215 38.9342 225.437 36.8015C227.741 31.0241 230.869 26.4794 235.008 26.4794C235.703 26.4794 236.429 26.608 237.183 26.8809C238.404 27.3235 239.238 28.2454 239.754 29.5436C240.821 32.2348 240.52 36.5444 239.454 41.5664" fill="#75251B"/>
<path d="M219.561 24.5388L267.505 31.7051C267.505 31.7051 271.309 6.54884 264.572 1.31718C261.359 -1.178 224.588 0.0969964 222.903 3.27287C221.219 6.44664 219.561 24.5388 219.561 24.5388" fill="#63A4D6"/>
<path d="M243.756 13.0767C243.756 8.38978 244.632 3.97262 246.175 0.0665235C235.422 0.348917 223.832 1.5196 222.903 3.27086C221.219 6.44463 219.561 24.5368 219.561 24.5368L247.341 28.6895C245.076 24.1975 243.756 18.8373 243.756 13.0767" fill="#488DB7"/>
<path d="M242.394 27.2983C242.394 27.2983 283.165 27.1202 291.923 33.8861C293.224 34.8924 276.489 35.5583 266.62 34.3919C256.752 33.2254 242.394 27.2983 242.394 27.2983Z" fill="#63A4D6"/>
<path d="M265.352 14.3003C265.352 10.8768 263.88 8.10237 262.066 8.10237C260.25 8.10237 258.779 10.8768 258.779 14.3003C258.779 17.7227 260.25 20.4961 262.066 20.4961C263.88 20.4961 265.352 17.7227 265.352 14.3003" fill="#AFD8F2"/>
<path d="M289.76 32.6418C284.505 33.3204 274.547 33.7598 267.824 32.9653C261.798 32.2551 250.62 28.2963 244.788 26.2237C240.199 26.1173 239.7 27.2858 239.7 27.2858C239.7 27.2858 256.641 34.0538 266.509 35.2181C276.378 36.3856 293.224 34.8925 291.923 33.8862C291.347 33.4426 290.613 33.0296 289.76 32.6418" fill="#488DB7"/>
<path d="M169.753 205.416L164.33 205.907L163.379 209.887L166.759 210.873L169.753 205.416Z" fill="#EF6043"/>
<path d="M360.564 402.143L356.479 405.382C356.479 405.382 362.396 419.186 362.396 419.607L371.549 416.65L360.564 402.143Z" fill="#FCE2AE"/>
<path d="M364.582 415.763C360.758 410.495 359.049 405.011 360.212 402.42L356.479 405.382C356.479 405.382 362.396 419.186 362.396 419.607L366.585 418.254C365.901 417.481 365.229 416.654 364.582 415.763" fill="#F9CC7D"/>
<path d="M362.615 435.443H423.662C423.662 435.443 373.381 424.114 367.539 416.625C350.698 422.624 362.615 435.443 362.615 435.443" fill="#8DB7C6"/>
<path d="M370.517 415.053C370.517 415.053 358.121 416.555 356.713 425.382C356.713 425.382 351.08 423.784 349.39 428.573C349.39 428.573 341.032 428.386 342.158 435.428H379.531C379.531 435.428 364.131 422.094 370.517 415.053" fill="#8DB7C6"/>
<path d="M391.411 435.443H441.503C441.503 435.443 384.306 409.801 367.465 415.804C362.815 417.462 360.438 420.459 359.316 422.744C369.681 425.797 366.481 435.443 391.411 435.443" fill="#B6D1DD"/>
<path d="M358.917 426.757C360.612 427.064 364.527 429.392 365.801 431.601C365.801 431.601 354.837 432.026 354.668 429.307C354.498 426.586 357.048 426.417 358.917 426.757Z" fill="#B6D1DD"/>
<path d="M375.213 426.978C377.467 428.387 381.88 432.049 384.697 432.707C387.513 433.364 399.908 433.269 404.039 434.865C404.039 434.865 400.754 431.779 388.64 431.203C386.668 431.11 375.213 426.978 375.213 426.978Z" fill="#8DB7C6"/>
<path d="M469.955 435.336C469.955 435.336 465.446 430.919 463.207 431.485C460.968 432.05 455.964 433.862 452.098 431.825C448.231 429.786 435.6 428.541 431.721 428.882C428.693 429.148 423.164 428.644 416.682 426.528L439.532 435.336H469.955" fill="#B6D1DD"/>
<path d="M412.489 429.045C414.837 430.144 419.531 432.799 423.851 432.799C428.17 432.799 433.24 430.922 439.625 431.116C439.625 431.116 434.645 429.994 429.297 430.533C420.941 431.376 412.489 429.045 412.489 429.045" fill="#8DB7C6"/>
<path d="M278.591 246.507C278.591 247.379 278.45 252.141 277.182 252.518C271.417 254.226 274.622 257.128 274.929 257.681C275.634 258.948 280.423 262.187 281.268 262.468C282.113 262.752 286.103 258.761 285.681 254.816C285.258 250.873 282.583 244.911 282.594 240.503C282.602 237.686 278.591 246.507 278.591 246.507" fill="#FFCD9C"/>
<path d="M148.92 176.554C151.981 183.709 170.57 183.718 175.351 180.309C180.131 176.901 221.3 148.526 221.3 148.526L219.628 142.898C219.628 142.898 168.638 150.075 162.815 154.582C157.797 158.468 145.119 167.669 148.92 176.554" fill="#FFCD9C"/>
<path d="M198.202 160.585C177.994 170.734 159.506 175.156 156.908 170.46C154.861 166.763 163.281 158.515 176.813 150.22C168.701 151.855 162.208 153.44 160.562 154.582C155.348 158.201 142.779 168.07 146.578 176.955C149.638 184.111 170.475 183.007 175.256 179.6C180.037 176.191 221.3 148.527 221.3 148.527L220.75 146.674C215.065 151.14 207.228 156.05 198.202 160.585" fill="#FFAE85"/>
<path d="M216.526 143.313C220.751 141.998 224.318 137.959 228.92 138.523C230.134 138.673 231.223 144.25 229.814 146.972C229.355 147.858 218.216 148.664 216.243 149.979C214.272 151.293 216.526 143.313 216.526 143.313" fill="#FFCD9C"/>
</svg>
